<?xml version="1.0" encoding="UTF-8"?>
<svg width="59px" height="60px" viewBox="0 0 59 60" version="1.1" xmlns="http://www.w3.org/2000/svg" xmlns:xlink="http://www.w3.org/1999/xlink">
    <!-- Generator: Sketch 62 (91390) - https://sketch.com -->
    <title>amazon</title>
    <desc>Created with Sketch.</desc>
    <g id="FME-Version-1" stroke="none" stroke-width="1" fill="none" fill-rule="evenodd">
        <g id="FME-Home-Desktop" transform="translate(-143.000000, -5095.000000)" fill-rule="nonzero">
            <g id="partners" transform="translate(0.000000, 5055.000000)">
                <g id="amazon" transform="translate(143.150000, 40.000000)">
                    <path d="M50.9771919,49.2947259 C26.3128767,61.0329453 11.0056849,51.2120547 1.20719178,45.2467809 C0.601027398,44.8707534 -0.429657534,45.3347259 0.464589042,46.3617123 C3.72883563,50.3198631 14.4269178,59.8600686 28.3910959,59.8600686 C42.3647259,59.8600686 50.6778081,52.2353424 51.7177398,50.9052741 C52.7504796,49.5865068 52.0210275,48.8589042 50.9771919,49.2947259 Z M57.9041097,45.4693152 C57.2418492,44.6069178 53.8767123,44.4460275 51.7590411,44.7061644 C49.6376712,44.9586987 46.4539725,46.2550686 46.7307534,47.0332191 C46.8729453,47.325 47.1628767,47.1941097 48.6201369,47.0632191 C50.0810958,46.9173288 54.1740411,46.4009589 55.0269864,47.5158903 C55.8838356,48.6382191 53.7213699,53.9864385 53.3266437,54.8488356 C52.9450686,55.711233 53.4725343,55.933767 54.1890411,55.3594521 C54.8960958,54.7851369 56.1756165,53.2980822 57.0343152,51.1935615 C57.8872602,49.0777398 58.4073288,46.125822 57.9041097,45.4693152 Z" id="Shape" fill="#B9B9B9"></path>
                    <path d="M44.7349314,30.6614385 L44.7349314,11.004863 C44.7349314,7.62842466 41.4688356,0 29.7306164,0 C17.9942466,0 11.750137,7.33479453 11.750137,13.9417808 L21.559726,14.8191781 C21.559726,14.8191781 23.744589,8.21589042 28.8158219,8.21589042 C33.8870547,8.21589042 33.539178,12.3238356 33.539178,13.2123288 L33.539178,17.4830137 C27.0425342,17.7018493 10.910137,19.5575342 10.910137,33.1606848 C10.910137,47.7889725 29.375137,48.4025343 35.430411,38.9484246 C35.6642466,39.3318492 35.9299314,39.7078767 36.2628081,40.0596576 C38.490822,42.4017123 41.4630822,45.1927398 41.4630822,45.1927398 L49.0354164,37.7102055 C49.0393152,37.7081508 44.7349314,34.3296576 44.7349314,30.6614385 Z M22.2967808,31.3516437 C22.2967808,25.0682877 29.0291096,23.7943151 33.5410275,23.644726 L33.5410275,29.0527397 C33.539178,39.765822 22.2967808,38.1439725 22.2967808,31.3516437 Z" id="Shape" fill="#A3A3A3"></path>
                </g>
            </g>
        </g>
    </g>
</svg>