<?xml version="1.0" encoding="UTF-8"?>
<svg width="24px" height="24px" viewBox="0 0 24 24" version="1.1" xmlns="http://www.w3.org/2000/svg" xmlns:xlink="http://www.w3.org/1999/xlink">
    <!-- Generator: Sketch 62 (91390) - https://sketch.com -->
    <title>call-answer</title>
    <desc>Created with Sketch.</desc>
    <g id="FME-Version-1" stroke="none" stroke-width="1" fill="none" fill-rule="evenodd">
        <g id="FME-Home-Desktop" transform="translate(-40.000000, -4867.000000)" fill="#222222" fill-rule="nonzero">
            <g id="contact" transform="translate(40.000000, 4263.000000)">
                <g id="phone" transform="translate(0.000000, 604.000000)">
                    <g id="call-answer">
                        <path d="M23.4671034,18.9712414 L19.7598621,15.2635862 C19.0214483,14.5281379 17.7986207,14.5504828 17.0344828,15.3148966 L15.1667586,17.1822069 C15.0487586,17.1171724 14.9266207,17.0492414 14.7982069,16.9771724 C13.6187586,16.3236552 12.0044828,15.427931 10.3057931,13.728 C8.60206897,12.0244828 7.70551724,10.4077241 7.05,9.22751724 C6.98082759,9.10248276 6.91455172,8.98193103 6.84910345,8.86744828 L8.10262069,7.6157931 L8.71889655,6.99875862 C9.4842069,6.23324138 9.50531034,5.01075862 8.76862069,4.27317241 L5.06137931,0.565103448 C4.32468966,-0.171448276 3.10131034,-0.149103448 2.336,0.616413793 L1.29117241,1.66724138 L1.31972414,1.69558621 C0.96937931,2.14262069 0.67662069,2.6582069 0.458758621,3.2142069 C0.257931034,3.74344828 0.132896552,4.24848276 0.0757241379,4.75455172 C-0.413793103,8.81275862 1.44068966,12.5216552 6.47351724,17.5545517 C13.4304138,24.5109655 19.0367586,23.9854483 19.2786207,23.9597931 C19.8053793,23.8968276 20.3102069,23.7709655 20.8232414,23.5717241 C21.3744138,23.3564138 21.8896552,23.064069 22.3364138,22.7144828 L22.3592414,22.7347586 L23.4177241,21.6982759 C24.1814483,20.9328966 24.2034483,19.71 23.4671034,18.9712414 Z" id="Path"></path>
                    </g>
                </g>
            </g>
        </g>
    </g>
</svg>