<?xml version="1.0" encoding="UTF-8"?>
<svg width="28px" height="24px" viewBox="0 0 28 24" version="1.1" xmlns="http://www.w3.org/2000/svg" xmlns:xlink="http://www.w3.org/1999/xlink">
    <!-- Generator: Sketch 62 (91390) - https://sketch.com -->
    <title>comment-black-oval-bubble-shape</title>
    <desc>Created with Sketch.</desc>
    <g id="FME-Version-1" stroke="none" stroke-width="1" fill="none" fill-rule="evenodd">
        <g id="FME-Home-Desktop" transform="translate(-40.000000, -4911.000000)" fill="#000000" fill-rule="nonzero">
            <g id="contact" transform="translate(40.000000, 4263.000000)">
                <g id="chat" transform="translate(0.000000, 648.000000)">
                    <g id="comment-black-oval-bubble-shape">
                        <path d="M26.0384182,4.98763636 C24.7924364,3.45632727 23.1,2.24678182 20.9615455,1.35910909 C18.8231455,0.471545455 16.4869091,0.0276545455 13.9536545,0.0276545455 C12.0640364,0.0276545455 10.2575455,0.289745455 8.53418182,0.814036364 C6.81081818,1.33827273 5.32625455,2.04687273 4.08038182,2.93967273 C2.83429091,3.83258182 1.84303636,4.89414545 1.1058,6.12430909 C0.368563636,7.35452727 0,8.64458182 0,9.99425455 C0,11.5514727 0.469636364,13.0106182 1.40929091,14.3706545 C2.34894545,15.7305273 3.63354545,16.8727091 5.26369091,17.7967091 C5.14936364,18.2118545 5.01441818,18.6064909 4.85863636,18.9799636 C4.70290909,19.3537091 4.56278182,19.6603636 4.4382,19.8991091 C4.31350909,20.1378545 4.14496364,20.4027273 3.93196364,20.6934 C3.71929091,20.9840182 3.55838182,21.1891636 3.44934545,21.3084 C3.34041818,21.4278545 3.16134545,21.6254182 2.91201818,21.9001636 C2.66301818,22.1755091 2.502,22.3544727 2.4294,22.4377091 C2.41887273,22.4425636 2.37741818,22.4896364 2.30476364,22.5777273 C2.23216364,22.6658182 2.19572727,22.7098909 2.19572727,22.7098909 L2.10229091,22.8498545 C2.05030909,22.9279091 2.02696364,22.9771636 2.03209091,22.9975091 C2.03732727,23.0178545 2.02696364,23.0701091 2.001,23.1530182 C1.97498182,23.2362545 1.97765455,23.2986 2.00874545,23.3402727 L2.00874545,23.3557636 C2.05047273,23.5428 2.14129091,23.6932364 2.28136364,23.8072364 C2.42143636,23.9213455 2.57994545,23.9681455 2.75634545,23.9470364 C3.43134545,23.8640182 4.02305455,23.7503455 4.53169091,23.6047091 C7.25187273,22.9088182 9.63981818,21.6529636 11.6953636,19.8357818 C12.4738364,19.9188 13.2265636,19.9604727 13.9533273,19.9604727 C16.4865273,19.9604727 18.8226545,19.5165818 20.9612727,18.6286364 C23.0998909,17.7410727 24.7921636,16.5314727 26.0379273,15.0004364 C27.2839091,13.4697818 27.9068182,11.8006364 27.9068182,9.9942 C27.9068182,8.18770909 27.2840182,6.51867273 26.0384182,4.98763636 Z" id="Path"></path>
                    </g>
                </g>
            </g>
        </g>
    </g>
</svg>