<?xml version="1.0" encoding="UTF-8"?>
<svg width="60px" height="30px" viewBox="0 0 60 30" version="1.1" xmlns="http://www.w3.org/2000/svg" xmlns:xlink="http://www.w3.org/1999/xlink">
    <!-- Generator: Sketch 62 (91390) - https://sketch.com -->
    <title>flag_of_california_bear_solid</title>
    <desc>Created with Sketch.</desc>
    <g id="FME-Version-1" stroke="none" stroke-width="1" fill="none" fill-rule="evenodd">
        <g id="FME-Home-Desktop" transform="translate(-1178.000000, -5275.000000)" fill="#FFFFFF" fill-rule="nonzero">
            <g id="footer" transform="translate(0.000000, 5195.000000)">
                <g id="flag_of_california_bear_solid" transform="translate(1178.000000, 80.000000)">
                    <path d="M11.2352145,29.9917125 C11.153334,29.9607615 11.089509,29.968737 11.0013885,29.9468445 C10.9049085,29.9440245 10.823121,29.9411745 10.7316495,29.9401395 C10.69419,29.9282745 10.6361865,29.917605 10.6027515,29.916423 C10.522794,29.888499 10.4577945,29.829495 10.379733,29.782362 C10.328472,29.74353 10.270365,29.7176085 10.215348,29.688633 C10.120998,29.7120075 10.0307565,29.695188 9.934089,29.699103 C9.751371,29.705358 9.57711,29.7574755 9.390621,29.7669765 C9.3541245,29.8161825 9.2939355,29.858979 9.2435535,29.9016945 C9.212052,29.9070795 9.18342,29.9046795 9.173718,29.8958445 C9.15018,29.874405 9.155778,29.802039 9.183798,29.7656085 C9.196458,29.7217215 9.23013,29.69364 9.2534985,29.65734 C9.2799285,29.591229 9.3252975,29.566404 9.3668415,29.509992 C9.3726465,29.4889005 9.3906735,29.454675 9.4068855,29.433936 C9.462507,29.362785 9.43185,29.2828335 9.3570585,29.3039955 C9.337791,29.3094405 9.303816,29.3255835 9.2815605,29.339856 C9.123096,29.356425 9.009525,29.409288 8.844606,29.4433995 C8.7574815,29.4551445 8.6675895,29.488938 8.5881765,29.5116045 C8.421441,29.623023 8.2187265,29.6750505 8.023542,29.7283755 C7.9561185,29.711952 7.9621365,29.6781945 8.039892,29.6366895 C8.077728,29.616492 8.11293,29.587791 8.1181155,29.5729095 C8.1233055,29.5580295 8.1534375,29.5338195 8.185086,29.5191135 C8.2882815,29.38317 8.417931,29.277282 8.5369305,29.1575205 C8.643246,29.067522 8.659995,29.0391135 8.6253495,29.0075565 C8.3977245,29.043861 8.1833385,29.1463845 7.9519635,29.1991785 C7.885608,29.2512615 7.8113895,29.2860075 7.738029,29.328783 C7.638753,29.3709375 7.5525525,29.426169 7.4648925,29.4869295 C7.4249115,29.532426 7.3783155,29.5288845 7.378443,29.4803595 C7.378566,29.433255 7.4121915,29.386611 7.4964885,29.316609 C7.5284325,29.282253 7.5622305,29.250471 7.592817,29.2197 C7.642434,29.20557 7.6124745,29.145012 7.621974,29.1089205 C7.623519,29.1012855 7.624929,29.0434125 7.625094,28.9803195 L7.625394,28.865607 L7.7038455,28.8061485 C7.746993,28.7734455 7.8086115,28.7344635 7.840773,28.719522 C7.8885645,28.6872195 7.935561,28.6571445 7.9835295,28.625577 C7.9977195,28.604412 8.1849045,28.5465525 8.2391775,28.5465525 C8.2946445,28.5465525 8.3456955,28.472841 8.377575,28.3467195 C8.397069,28.2695895 8.412906,28.235325 8.4310515,28.231002 C8.4452265,28.227627 8.4716235,28.2066375 8.4897015,28.1843655 C8.605011,28.1607915 8.6762715,28.0745475 8.7572145,27.996435 C8.7695895,27.9802605 8.800686,27.9632085 8.826309,27.9585405 C8.9005035,27.90909 9.007824,27.824865 9.052245,27.7856895 C9.175359,27.75798 9.2704095,27.661908 9.3676545,27.5883855 C9.4010925,27.5827155 9.444102,27.5206185 9.515322,27.4821435 C9.586542,27.4436685 9.7156575,27.3819255 9.8083545,27.324618 C9.9250605,27.2490885 10.0154175,27.241398 10.1425365,27.232842 C10.177542,27.227037 10.238232,27.223722 10.2773985,27.225492 C10.4113575,27.2059755 10.539711,27.1661025 10.673616,27.143151 C10.7267565,27.128346 10.8079635,27.1163505 10.854078,27.116499 C10.900194,27.116649 11.092275,27.111984 11.280927,27.106134 C11.4397605,27.119394 11.5937205,27.083721 11.742834,27.0543885 C11.89242,27.009762 12.022428,26.925363 12.149868,26.838342 C12.3046965,26.748552 12.393069,26.588778 12.5157375,26.461764 C12.54036,26.385555 12.584958,26.318937 12.6221505,26.2487265 C12.6622905,26.1626625 12.720408,26.083482 12.770832,26.005482 C12.789306,26.005482 12.904443,25.753386 12.8992605,25.7242875 C12.954012,25.673568 12.9825,25.5985065 13.0215405,25.529877 C13.064841,25.4602275 13.084275,25.3870695 13.1228205,25.311201 C13.179195,25.2272625 13.2433665,25.1463825 13.310481,25.075146 C13.339692,25.0383645 13.3876515,24.998457 13.4226915,24.959073 C13.445547,24.870576 13.5146895,24.8009985 13.5638025,24.7324725 C13.5981225,24.7214775 13.7195055,24.6016005 13.719819,24.578391 C13.7845095,24.5234175 13.839234,24.4506795 13.8943095,24.3821775 C14.029512,24.1655475 14.229606,24.002043 14.3910315,23.811435 C14.4085005,23.773425 14.425293,23.7484335 14.443824,23.7143565 C14.456214,23.7143565 14.478504,23.6972685 14.493369,23.676381 C14.508234,23.6554965 14.5426935,23.620482 14.569944,23.5985715 C14.5889535,23.5592925 14.6307495,23.5419525 14.6537895,23.5204995 C14.749965,23.5080795 14.8065435,23.377137 14.885451,23.300133 C14.890641,23.285223 14.908509,23.269773 14.925141,23.2658115 C14.9994105,23.216463 14.9989245,23.1365595 15.0228465,23.0628285 C15.0441585,22.9526715 15.083262,22.946835 15.166959,22.8818685 C15.195753,22.848411 15.225531,22.8156255 15.25407,22.78335 C15.273969,22.776465 15.29025,22.7610405 15.29025,22.749087 C15.3712905,22.609596 15.454617,22.5618 15.5264295,22.43748 C15.5357745,22.3870875 15.5412945,22.381113 15.575427,22.3844835 C15.7475415,22.22166 15.718518,22.139214 15.760545,22.0480815 C15.8974665,21.987252 15.873789,21.8312985 15.8840835,21.687345 C15.967584,21.594045 16.008687,21.4815435 16.0448565,21.3676875 C16.0698855,21.3367875 16.0829685,21.302376 16.0829685,21.267447 C16.1526525,21.1929255 16.1549865,21.1062735 16.1803425,21.020547 C16.207005,21.020547 16.314789,20.777514 16.352772,20.63175 C16.415976,20.570343 16.431144,20.4777 16.432479,20.4014145 C16.433829,20.325129 16.4654595,20.218437 16.488771,20.123523 C16.5280695,20.0282655 16.536789,19.9330095 16.545816,19.830102 C16.5822165,19.7415285 16.605012,19.6483215 16.632693,19.56138 C16.7005935,19.4551155 16.7097525,19.337295 16.7195445,19.2135945 C16.7364,19.0897905 16.774668,19.004553 16.763133,18.912681 C16.7896155,18.909246 16.79703,18.8959875 16.8044625,18.8388165 C16.8094425,18.800499 16.8099075,18.7524 16.8055125,18.731928 C16.7984325,18.699054 16.827273,18.622827 16.874778,18.548907 C16.917348,18.437424 16.9506105,18.319407 16.982178,18.2059575 C17.077398,18.0578295 17.1096825,17.889075 17.1635265,17.6920125 C17.191854,17.667465 17.2137945,17.5533075 17.212617,17.436603 C17.224392,17.376216 17.272581,17.329737 17.313033,17.2789935 C17.327568,17.2876035 17.3399205,17.2585365 17.353365,17.248308 C17.3208825,17.237553 17.2431015,17.1604995 17.2421925,17.1381765 C17.2418925,17.1298065 17.2655835,17.1004305 17.2949295,17.0729085 C17.372478,17.0065335 17.3113425,17.0046045 17.325153,16.947132 C17.332008,16.8362145 17.3765445,16.8169035 17.410308,16.7350575 C17.429265,16.702794 17.4283455,16.696815 17.401278,16.6763295 C17.390928,16.614381 17.337882,16.590585 17.306346,16.547934 C17.226231,16.504968 17.13174,16.4886165 17.043474,16.4661075 C17.025036,16.4571225 17.002158,16.4632125 16.9627725,16.487586 C16.9001745,16.526331 16.8491025,16.5307785 16.8061995,16.501221 C16.7641395,16.472244 16.711848,16.475241 16.6927635,16.507716 C16.645308,16.5473895 16.593957,16.5873345 16.543092,16.6257435 C16.520241,16.6714215 16.487289,16.669806 16.465521,16.6219335 C16.4418195,16.56981 16.313784,16.498932 16.281642,16.5201405 C16.2126915,16.5388395 16.191654,16.60188 16.148547,16.6500375 C16.135302,16.6770495 16.121688,16.681281 16.0479795,16.681281 C15.9724485,16.681281 15.9568995,16.686426 15.9116055,16.7264085 C15.8795535,16.7547015 15.8451135,16.7715375 15.819285,16.7715375 C15.787395,16.7306295 15.726471,16.698486 15.6870045,16.660452 C15.59556,16.69875 15.533946,16.773243 15.4731975,16.8479085 C15.432834,16.887042 15.379854,16.892817 15.3457965,16.8617985 C15.3152595,16.833984 15.2611905,16.835331 15.2490255,16.8642135 C15.2233605,16.9251315 15.187518,16.939317 15.083727,16.9296315 C14.9993655,16.9217565 14.985909,16.9168515 14.992998,16.896501 C15.0101625,16.847241 14.887986,16.777863 14.8402365,16.809756 C14.8145385,16.8269205 14.7872055,16.8949155 14.786958,16.942299 C14.786829,16.9667595 14.781468,16.994301 14.775048,17.0035035 C14.762223,17.021877 14.672997,17.0165985 14.644554,16.9957935 C14.634969,16.9887735 14.6053035,16.978791 14.5786365,16.973601 C14.520234,16.9961745 14.4653775,16.9950825 14.400984,17.0122305 C14.310315,17.0045205 14.301894,17.0063955 14.2525665,17.0451795 C14.2238055,17.0677995 14.177418,17.098278 14.149485,17.112912 C14.1027405,17.137398 14.0994105,17.143632 14.1076725,17.1912 C14.1153975,17.235648 14.1113475,17.2460475 14.078793,17.26548 C14.0579685,17.277915 14.0153415,17.2890165 13.9840635,17.290167 C13.9307535,17.303682 13.9034745,17.334846 13.858953,17.35953 C13.7969055,17.3136975 13.8031425,17.323113 13.747938,17.2870905 C13.7284185,17.2968855 13.700487,17.3032245 13.685871,17.3011905 C13.60794,17.380809 13.507188,17.430978 13.413729,17.479188 C13.3162185,17.479788 13.296633,17.493303 13.250199,17.5919745 C13.212831,17.671389 13.1496765,17.7015315 13.07334,17.6763885 C12.9926325,17.6498055 12.95784,17.6551485 12.95784,17.694123 C12.9888075,17.754789 12.981648,17.8191615 12.987741,17.8884345 C13.003959,17.952213 12.986226,17.9934825 12.9425955,17.9934825 C12.903123,17.9934825 12.8816175,17.9527905 12.8816175,17.8781025 C12.8816175,17.844189 12.8773275,17.7969135 12.8720925,17.7730485 C12.8636625,17.734659 12.8565885,17.7296565 12.8107365,17.7296565 C12.7715475,17.7296565 12.7552935,17.7372765 12.744078,17.7608985 C12.735918,17.7780825 12.721074,17.802525 12.7110825,17.815215 C12.7208925,17.9096715 12.7010325,17.9955045 12.6911805,18.0875865 C12.6874005,18.1651185 12.6708465,18.187269 12.616395,18.1876695 C12.5894685,18.1878195 12.588072,18.1792695 12.59628,18.0638865 L12.6051,17.9398935 C12.4120305,17.8970295 12.405768,17.9519385 12.431841,18.1265145 C12.4527675,18.164085 12.4699185,18.2120085 12.469953,18.23301 C12.4700085,18.266094 12.463983,18.2711955 12.4248195,18.2711955 C12.3952245,18.2711955 12.3739905,18.2616105 12.3633045,18.2434245 C12.3543345,18.22815 12.3342885,18.2156535 12.3187665,18.2156535 C12.2970255,18.2156535 12.2881935,18.2299335 12.280311,18.277815 C12.267546,18.3553785 12.250149,18.365658 12.1947825,18.328374 C12.141198,18.292287 12.078645,18.2897685 12.0679695,18.323274 C12.0637095,18.336639 12.0556245,18.3833145 12.0499965,18.4270005 C12.0387615,18.5143095 12.028116,18.5271495 11.956842,18.5394285 C11.897604,18.5496435 11.868804,18.5255835 11.8974885,18.489846 C11.9082135,18.476496 11.9136945,18.449919 11.9096835,18.430791 C11.9056635,18.4116645 11.9099835,18.387669 11.9192835,18.377469 C11.9285835,18.367269 11.939187,18.310728 11.9428605,18.251823 L11.9495355,18.14472 L11.9086965,18.14757 C11.828757,18.176853 11.811819,18.103383 11.7524565,18.0763065 C11.696019,18.0500805 11.682864,18.049014 11.606937,18.0644865 C11.512116,18.083814 11.4925395,18.100515 11.533062,18.1275045 C11.6118615,18.1190595 11.628681,18.1323195 11.6980545,18.1358145 C11.7043095,18.157398 11.6979045,18.1734975 11.677176,18.1878855 C11.6502495,18.206613 11.649054,18.2143155 11.665326,18.2642565 C11.675286,18.2948055 11.698116,18.3416685 11.716068,18.3683985 C11.7578955,18.4306725 11.780106,18.611406 11.747337,18.6228585 C11.7038445,18.6380625 11.6791635,18.599574 11.6720295,18.5054205 C11.6681895,18.45477 11.6570745,18.399744 11.647311,18.383139 C11.6281695,18.350559 11.574447,18.3264135 11.544324,18.3368505 C11.5096125,18.3488805 11.506917,18.4281435 11.538129,18.5191365 C11.5717845,18.6172665 11.5687215,18.6396045 11.519991,18.6514695 C11.4759645,18.6621945 11.448633,18.6274815 11.448633,18.5608515 C11.448633,18.517995 11.439528,18.502338 11.3976495,18.4732485 C11.369046,18.4533765 11.326488,18.4378275 11.3006985,18.4378275 C11.2569855,18.4378275 11.2549425,18.4352775 11.259003,18.3857565 C11.261358,18.357117 11.267643,18.323556 11.272983,18.311175 C11.265108,18.2358015 11.185746,18.2243235 11.1461145,18.1949805 C11.1360945,18.2041005 11.1163785,18.339627 11.1145365,18.412041 C11.1130365,18.4695855 11.1425505,18.4890675 11.190129,18.462003 C11.236227,18.43578 11.2727235,18.464478 11.276178,18.529659 C11.277753,18.559341 11.285703,18.6116565 11.2938435,18.6459165 C11.3019885,18.6801765 11.3030385,18.717771 11.2961685,18.729459 C11.2887135,18.742149 11.2921185,18.7646025 11.3046435,18.7851945 C11.327502,18.8228085 11.3346765,18.965481 11.3137185,18.965481 C11.3065785,18.965481 11.279775,18.958821 11.2541415,18.950676 C11.20053,18.9336525 11.1844635,18.8948475 11.198328,18.8158665 C11.212023,18.7378755 11.181849,18.6529305 11.1280665,18.618048 C11.08275,18.565467 11.0686245,18.635031 11.02734,18.646827 C10.9727025,18.665748 10.979124,18.739776 11.044665,18.8465265 C11.0895255,18.919596 11.09802,18.9470325 11.09802,19.018881 C11.09802,19.099599 11.09601,19.1043315 11.0617755,19.1043315 C11.0115405,19.1043315 10.985619,19.071231 10.9966185,19.021137 C10.968789,18.9635205 10.8903645,18.83409 10.869351,18.8067795 C10.869351,18.7848 10.8022215,18.6877635 10.7870175,18.6877635 C10.741461,18.6877635 10.725396,18.7279515 10.744689,18.793656 C10.757604,18.837654 10.758264,18.863652 10.746969,18.8828955 C10.726881,18.917088 10.750254,19.0029165 10.793187,19.0526385 L10.9237275,19.234428 L10.8949485,19.2874065 C10.879122,19.3165455 10.860417,19.340388 10.853385,19.340388 C10.8350655,19.340388 10.7931345,19.2825735 10.7931345,19.2573135 C10.7931345,19.2259095 10.720398,19.159875 10.685805,19.159875 C10.660041,19.159875 10.655934,19.169625 10.655934,19.230771 C10.669254,19.3290435 10.683495,19.4281005 10.69866,19.5257295 L10.69404,19.583385 L10.6326735,19.57902 C10.571565,19.574685 10.571229,19.574925 10.5526995,19.638033 C10.5424695,19.6728885 10.5273795,19.701408 10.5191775,19.701408 C10.5109725,19.701408 10.4929305,19.6814415 10.4790765,19.6570395 C10.457874,19.6196925 10.4566065,19.601943 10.4710665,19.544895 C10.5085065,19.397151 10.487628,19.339329 10.4069295,19.367277 C10.323228,19.3962615 10.305066,19.480404 10.3609905,19.5800865 C10.394079,19.6390605 10.406376,19.8296055 10.3784565,19.8507105 C10.3608855,19.8639855 10.350255,19.8636255 10.328286,19.8490005 C10.3067565,19.8346605 10.299954,19.8102165 10.2984045,19.741623 C10.2967245,19.6674645 10.281036,19.5829065 10.250232,19.482048 C10.246347,19.469343 10.229007,19.466715 10.1914215,19.473138 C10.145718,19.420824 10.038294,19.445991 10.037532,19.445856 C10.043187,19.466382 10.039812,19.4902905 10.029687,19.501398 C10.027647,19.517835 10.080561,19.542399 10.1106345,19.5666345 C10.076166,19.6068495 10.0781415,19.6504365 10.1163045,19.691748 C10.1446725,19.7224545 10.153263,19.74588 10.1498385,19.7831775 C10.1458335,19.826727 10.1402235,19.8331455 10.1071215,19.8319725 C10.0861605,19.8312225 10.057005,19.8258675 10.042332,19.8200775 C10.0168965,19.8323775 9.991644,19.9527435 9.9854565,19.979127 C9.948375,19.979127 9.929832,20.0340435 9.9533805,20.0741205 C9.972105,20.105991 9.976008,20.2517745 9.9584055,20.261685 C9.9520755,20.265255 9.9284535,20.264955 9.9059235,20.261085 C9.866337,20.254185 9.865215,20.251455 9.872508,20.1795375 L9.880053,20.1051225 L9.8240385,20.083806 C9.7217835,20.04489 9.672306,20.066454 9.7113585,20.132919 C9.73563,20.174229 9.7499715,20.423514 9.728076,20.423514 C9.719151,20.423514 9.704499,20.411019 9.6955245,20.3957415 C9.6580035,20.3318865 9.6006195,20.3796705 9.589041,20.484411 C9.582471,20.543787 9.576186,20.555427 9.550701,20.555427 C9.5163825,20.5175535 9.4990365,20.3902155 9.4897215,20.343672 C9.472953,20.341767 9.443805,20.351157 9.42495,20.364549 C9.414915,20.4469935 9.376608,20.556 9.356307,20.615403 C9.3251715,20.611383 9.321618,20.602383 9.3175245,20.5172415 C9.3142245,20.448555 9.3073695,20.423514 9.291873,20.423514 C9.268578,20.423514 9.260868,20.4417405 9.2449815,20.5343715 C9.2336565,20.6004345 9.172467,20.68734 9.1372875,20.68734 C9.1053495,20.68734 9.1111425,20.604147 9.1484325,20.527377 C9.175767,20.456919 9.1776765,20.377908 9.1847085,20.303625 C9.214971,20.2376565 9.1995285,20.20392 9.133614,20.1919605 C9.089388,20.1903255 9.046785,20.1800805 9.003618,20.174166 C8.9453475,20.143614 8.955846,20.071416 8.942154,20.012805 C8.9681895,19.9447215 8.874285,19.9689375 8.836281,19.9443735 C8.7759015,19.862466 8.714826,19.975113 8.6987805,19.9791735 C8.6911905,20.0223705 8.6822925,20.0347155 8.65872,20.0347155 C8.63169,20.0347155 8.628411,20.0252805 8.628411,19.947549 C8.628411,19.8510825 8.6041845,19.805421 8.541477,19.7837055 C8.5191855,19.7759805 8.506578,19.762854 8.511117,19.7520795 C8.524617,19.7200185 8.495703,19.692684 8.4649965,19.708494 C8.4500715,19.716174 8.406984,19.722279 8.369253,19.722039 C8.301183,19.721589 8.300691,19.721289 8.305614,19.6768215 C8.309784,19.6392105 8.3054685,19.63203 8.278728,19.63203 C8.215341,19.670673 8.1751515,19.63689 8.115543,19.63947 C8.0593185,19.65393 7.980201,19.65045 7.941999,19.63182 C7.8664785,19.5796095 7.8697095,19.6846725 7.842153,19.7048205 C7.832043,19.7140305 7.744467,19.671498 7.7443215,19.6573095 C7.7441715,19.6376415 7.6950825,19.604247 7.666401,19.604247 C7.6499475,19.604247 7.6163685,19.6229925 7.5917805,19.6459035 C7.539282,19.6948215 7.471248,19.7024595 7.459281,19.6607835 C7.453986,19.642353 7.4327835,19.6311105 7.391256,19.624719 C7.3411185,19.617009 7.321263,19.621524 7.273785,19.6515 C7.205424,19.6719885 7.128942,19.704996 7.0690725,19.7233965 C7.0508445,19.755084 7.0380105,19.7595975 6.958062,19.76244 C6.820923,19.767315 6.7629915,19.8078885 6.693441,19.947777 C6.678831,19.977153 6.671739,19.978395 6.565377,19.9702065 C6.4311855,19.9564965 6.3711075,20.0695245 6.24141,20.1180195 C6.1649385,20.1249045 6.1240005,20.1845115 6.0825675,20.2208565 C6.0825675,20.2645845 6.0773325,20.269776 6.013101,20.289711 C5.916975,20.3195445 5.8093905,20.384058 5.8087215,20.41227 C5.8079715,20.444994 5.8009365,20.4473385 5.647365,20.466261 C5.5497825,20.467311 5.468613,20.512776 5.385402,20.548473 C5.3576805,20.5779645 5.262501,20.587323 5.2357305,20.563188 C5.2266855,20.555028 5.1813705,20.560233 5.1148665,20.577078 C4.9828245,20.610519 4.93002,20.6112 4.910181,20.579718 C4.850604,20.587533 4.76199,20.574408 4.6936275,20.570148 C4.6665525,20.5493955 4.62141,20.5331115 4.5770925,20.528112 C4.5373065,20.523627 4.455483,20.513487 4.395264,20.505585 C4.335045,20.49768 4.256382,20.490855 4.2204555,20.4904005 C4.0631535,20.4865155 3.947052,20.442258 3.818508,20.354079 C3.684462,20.348559 3.72363,20.2939665 3.6698295,20.2100115 L3.5824575,20.157474 L3.5824575,20.056308 C3.5824575,19.981869 3.5754075,19.946367 3.5557785,19.921929 C3.500451,19.853046 3.490989,19.8240525 3.490989,19.723395 C3.490989,19.6209075 3.491289,19.6199475 3.5329125,19.615593 C3.571722,19.611528 3.575802,19.605018 3.5878785,19.527885 C3.603111,19.430583 3.60321,19.4168325 3.5890785,19.3612575 C3.5321295,19.2908385 3.474612,19.2172395 3.4128555,19.151103 C3.3723585,19.1118405 3.3849675,19.0766025 3.439515,19.0766025 C3.4672635,19.0766025 3.4981035,19.0937355 3.535272,19.1298 C3.565425,19.159059 3.6021015,19.1869815 3.6167745,19.191849 C3.642144,19.2651705 3.7206165,19.242771 3.7649805,19.26453 C3.7910025,19.1582265 3.7821495,19.041654 3.7745205,18.9340755 C3.808326,18.9032805 3.918258,19.041108 3.9597105,19.166259 C3.98481,19.242036 4.161852,19.3132215 4.265997,19.2894135 C4.2963975,19.2824685 4.3006575,19.2746535 4.2940815,19.237926 C4.2898215,19.2141135 4.277205,19.1711985 4.266051,19.142559 C4.2482025,19.0967265 4.239783,19.090488 4.19577,19.090488 C4.1552565,19.090488 4.1427435,19.083243 4.1298375,19.052328 C4.0951905,19.017195 4.090758,18.963942 4.073886,18.9257805 C4.0500675,18.9122205 4.047486,18.7859985 4.069521,18.712068 C4.0869165,18.652461 4.1394555,18.6203565 4.174014,18.5750385 C4.176894,18.5525025 4.1928765,18.532938 4.216377,18.523185 C4.302846,18.4311 4.39119,18.353397 4.4724855,18.271938 C4.532169,18.2486355 4.5429465,18.239439 4.5287865,18.2238975 C4.5054855,18.2163525 4.463367,18.203244 4.4544975,18.2004435 C4.6091175,18.071655 4.70229,17.9354595 4.735779,17.743584 C4.740924,17.678427 4.736829,17.64582 4.720974,17.6263275 C4.665765,17.5958175 4.574073,17.6430015 4.506789,17.6592405 C4.384281,17.71383 4.302222,17.8023915 4.1770185,17.861913 C4.1267895,17.8995855 4.0695615,17.9400225 4.0164375,17.974536 C3.918606,18.0747825 3.79035,18.1380795 3.6799695,18.2215035 C3.630543,18.243789 3.573741,18.2734695 3.5537445,18.28746 C3.423867,18.3310575 3.294906,18.371085 3.161427,18.4024785 C3.1135005,18.4149585 3.0765795,18.4706955 3.055083,18.4879785 C3.060078,18.5062395 3.068388,18.538362 3.0735525,18.5593635 C3.099441,18.599997 3.112833,18.644592 3.1327755,18.687861 C3.1391055,18.7219965 3.1536525,18.7741035 3.165099,18.803658 C3.176544,18.8332095 3.1821255,18.8629725 3.177489,18.8697975 C3.163629,18.890229 3.109614,18.8838225 3.0998235,18.8605725 C3.008919,18.8275095 2.934048,18.7607565 2.8591845,18.692805 C2.8351125,18.648453 2.781243,18.6300495 2.744022,18.600081 C2.744022,18.5773185 2.6610645,18.508062 2.5915755,18.4728135 C2.5622295,18.4579335 2.50392,18.441279 2.4619965,18.4358175 C2.4200745,18.4303575 2.3660265,18.4214475 2.341893,18.416028 C2.317758,18.410598 2.24016,18.414363 2.1694545,18.424383 C2.0449635,18.442023 2.0371935,18.441471 1.92369,18.406935 C1.859223,18.387321 1.76532,18.3634005 1.715013,18.353781 C1.6279215,18.3172095 1.545711,18.29433 1.455285,18.268539 C1.2464745,18.231441 1.0722765,18.152499 0.9043215,18.026796 C0.8692815,17.9940825 0.813735,17.9548275 0.780882,17.939562 C0.748029,17.924295 0.710712,17.897295 0.6979545,17.879559 C0.668031,17.837961 0.6411075,17.723154 0.656097,17.7010635 C0.6769455,17.670336 0.716493,17.6985285 0.716493,17.744109 C0.716493,17.780766 0.721563,17.7865065 0.7506375,17.7827295 C0.802386,17.7760095 0.8036745,17.7294825 0.7531275,17.69277 L0.7101045,17.661522 L0.7474125,17.648952 C0.770886,17.641047 0.7939335,17.641617 0.8095665,17.650512 C0.8450265,17.670684 0.8816385,17.653512 0.893286,17.6112405 C0.9085935,17.5556865 0.883716,17.543763 0.7983315,17.5657275 C0.7461795,17.5791375 0.722754,17.5928265 0.7189425,17.612097 C0.7096875,17.6588805 0.68805,17.6669685 0.6724065,17.6294895 C0.6591315,17.5977015 0.6479445,17.5936305 0.559734,17.588514 C0.4656735,17.584179 0.3863175,17.534451 0.304632,17.4919245 C0.243747,17.447868 0.1818795,17.400501 0.126444,17.3469165 C0.056709,17.3039565 0,17.197911 0,17.11047 C0,17.0603085 0.00945,17.040867 0.0565395,16.994223 C0.105828,16.954116 0.1534995,16.916262 0.20394,16.8773295 C0.26028,16.8591225 0.3060585,16.8104145 0.350625,16.7812125 C0.350625,16.7703825 0.410982,16.740627 0.492849,16.7111115 C0.651048,16.6540785 0.711678,16.6030335 0.6946425,16.541211 C0.735924,16.4508585 0.821646,16.3849365 0.8907705,16.3191165 C0.9761235,16.237476 1.050666,16.140738 1.120476,16.0405935 C1.1870325,16.0162185 1.227822,15.905706 1.280544,15.8331315 C1.4171055,15.73293 1.4810385,15.6144645 1.602741,15.4967505 C1.6410645,15.435213 1.6939035,15.386661 1.737882,15.3325485 C1.7717055,15.257886 1.8269535,15.1903635 1.874742,15.1248195 C1.875342,15.100563 1.9279815,15.0636525 1.962072,15.0636525 C2.001627,15.0636525 2.0246865,15.0384105 2.037204,14.9814015 C2.087253,14.909838 2.1608895,14.8394385 2.2135665,14.7720555 C2.233914,14.7720555 2.2505775,14.755422 2.265957,14.7197625 C2.3511585,14.6242695 2.4130995,14.507706 2.49441,14.415069 C2.556726,14.3440725 2.6170155,14.2761735 2.6754225,14.2027455 C2.7373065,14.1316695 2.777013,14.069082 2.827686,13.99446 C2.839911,13.975368 2.8604835,13.9394385 2.8733985,13.914618 C2.9384235,13.8597375 2.958864,13.7875335 2.997339,13.7136435 C3.0589725,13.5952785 3.0834135,13.5248535 3.080958,13.443045 C3.109797,13.389408 3.1089075,13.3279305 3.118071,13.2901875 C3.096015,13.2789375 3.0440955,13.040922 3.0589185,13.0189965 C3.088251,12.9996975 3.100305,13.047078 3.125427,13.064124 C3.198522,13.035624 3.096048,12.9568425 3.087402,12.925269 C3.053841,12.925269 3.0587355,12.9069795 3.102267,12.8697255 C3.1473735,12.831129 3.149535,12.81318 3.113697,12.7748085 C3.0958335,12.7556805 3.06435,12.74472 3.0184185,12.741633 C2.9397945,12.734958 2.9100735,12.6615405 2.865471,12.604515 C2.8188075,12.5529015 2.7827235,12.476202 2.750553,12.4299585 C2.756358,12.408351 2.765148,12.371931 2.770095,12.349023 C2.774055,12.258723 2.8224285,12.1855905 2.852109,12.1125615 C2.909325,12.0558255 2.9501085,11.9740065 2.9879295,11.8996755 C2.9879295,11.8888605 3.025659,11.8288965 3.0717735,11.7664155 C3.124485,11.7080265 3.1505085,11.635824 3.1877595,11.5689885 C3.1970145,11.487912 3.2411235,11.4400095 3.269784,11.366268 C3.300876,11.2709025 3.3318345,11.231223 3.37515,11.231223 C3.491232,10.9843995 3.6309195,10.7510235 3.7499085,10.5020895 C3.829836,10.3527915 3.886653,10.300203 3.94644,10.2096735 C4.006227,10.119144 4.04409,10.0839045 4.085538,9.9846015 C4.1021715,9.936231 4.139106,9.897471 4.165821,9.854016 C4.225836,9.8373255 4.266303,9.7878315 4.318392,9.7567305 C4.341429,9.7536855 4.354128,9.7392375 4.361064,9.708156 C4.445622,9.54762 4.6074315,9.4398375 4.707066,9.299637 C4.750116,9.2585025 4.798329,9.20478 4.843227,9.1609875 C4.8681855,9.015783 4.8199275,8.876214 4.777884,8.7389235 C4.7581635,8.711511 4.754817,8.687304 4.762944,8.630919 C4.768704,8.590947 4.775754,8.537241 4.778619,8.5115685 C4.781484,8.485899 4.7962485,8.443872 4.8114405,8.4181755 C4.8109905,8.3088045 4.8316905,8.2183815 4.84797,8.1350775 C4.8737445,8.0467515 4.906776,7.9597545 4.9437795,7.8687525 C4.9573695,7.8563775 4.9697835,7.801983 4.9767015,7.724511 C4.9853115,7.628157 4.994793,7.593258 5.018808,7.5696015 C5.0472855,7.5195075 5.0681895,7.4646885 5.0916825,7.4093415 C5.165685,7.2996435 5.2826085,7.190796 5.360691,7.056627 C5.4000975,7.0024185 5.4560865,6.969363 5.5040025,6.925467 C5.565594,6.887379 5.642343,6.842628 5.727576,6.844938 C5.812809,6.847248 5.9338965,6.8933055 6.029877,6.909015 C6.067785,6.9475575 6.1274445,7.028364 6.137754,7.055127 C6.2158995,7.0878735 6.3012435,7.1278725 6.378375,7.1692845 C6.479625,7.233135 6.5656365,7.3151175 6.6428175,7.389984 C6.8127765,7.4890155 6.8919495,7.5331245 7.0428015,7.578258 C7.1227965,7.5948285 7.177257,7.5460125 7.2425655,7.5098805 C7.261758,7.5098805 7.334538,7.4929515 7.4042955,7.472259 C7.478484,7.4449605 7.5904185,7.4497425 7.637292,7.447953 C7.736211,7.4207085 7.7770545,7.340961 7.827354,7.2933345 C7.838379,7.2573915 7.8730215,7.2514155 7.8960315,7.2302955 C7.9381215,7.2169305 7.940904,7.2116265 7.9379535,7.150362 C7.9359885,7.0793685 7.984869,7.022292 8.0187345,6.9638055 C8.0387325,6.892008 8.071782,6.8224815 8.1005895,6.753114 C8.1211455,6.6835215 8.1707535,6.6455565 8.2109865,6.5965635 C8.2673295,6.506154 8.3267535,6.424023 8.372889,6.3292275 C8.4000345,6.3027045 8.4292455,6.268776 8.4378,6.253833 C8.5424955,6.17046 8.6035275,6.0986055 8.741412,6.034074 C8.844225,5.9935725 8.925315,5.920872 9.008208,5.8510155 C9.1166385,5.8403655 9.2454885,5.886108 9.3695505,5.8986975 C9.3985095,5.9218575 9.434811,5.9408055 9.4502235,5.9408055 C9.569415,5.989944 9.6716205,6.063504 9.7461675,6.12645 L9.816498,6.117675 C9.8165445,6.2258175 9.8817885,6.2253915 9.948399,6.2860245 C9.972858,6.2963295 9.9864195,6.3256125 10.007094,6.4127655 C10.030818,6.5127795 10.039626,6.52932 10.0819965,6.5534265 C10.1562075,6.595647 10.3163565,6.5648415 10.4030235,6.4916865 C10.441323,6.4593555 10.5282645,6.4244745 10.6140285,6.407034 C10.6604835,6.3766995 10.67136,6.315528 10.7016855,6.2671245 C10.7757375,6.217494 10.8172275,6.1746615 10.8664455,6.0975135 C10.9048065,6.053961 10.920369,6.041094 10.955949,6.0038655 C10.895721,5.9919105 10.9118595,5.9673555 11.0016525,5.934321 C11.07252,5.861523 11.1307035,5.9144175 11.1971295,5.9080215 C11.21997,5.9000415 11.2203195,5.878344 11.1990795,5.7865875 C11.2545105,5.689614 11.348934,5.6764185 11.4340905,5.638533 C11.51157,5.638533 11.570622,5.6098335 11.570622,5.5721775 C11.570622,5.5627275 11.581017,5.5513545 11.5937175,5.546913 C11.722179,5.4430065 11.850408,5.338089 11.9752275,5.228349 C11.9832675,5.2117095 12.000138,5.196864 12.012714,5.195361 C12.025284,5.193861 12.088746,5.188596 12.153726,5.183676 C12.271689,5.174736 12.295077,5.1609015 12.2466765,5.128665 C12.2104275,5.104521 12.2330565,5.08221 12.312186,5.06406 C12.351135,5.05512 12.384414,5.0385015 12.388605,5.025882 C12.492009,4.921107 12.627408,4.8554565 12.748578,4.774185 C12.9320535,4.6886805 13.098741,4.666491 13.2531105,4.5366945 C13.3246395,4.5078645 13.4046435,4.456023 13.4606385,4.420242 C13.501158,4.431957 13.6012275,4.432662 13.6398135,4.421442 C13.703088,4.379343 13.7502975,4.314507 13.800033,4.2569685 C13.814583,4.1966745 13.8736185,4.1811135 13.904289,4.1494965 C13.914759,4.2164775 14.0035605,4.20078 14.0377935,4.218465 C14.0441385,4.201392 14.0700945,4.1785695 14.1223995,4.1440785 C14.1558615,4.1058285 14.1895755,4.0710915 14.223297,4.034451 C14.226342,3.986754 14.297097,4.0084065 14.305629,4.005396 C14.310069,4.015911 14.3338455,4.0245255 14.3584815,4.0245255 C14.393358,4.0245255 14.416938,4.0096605 14.4649965,3.9573765 L14.52672,3.8902245 L14.609946,3.8965095 C14.688198,3.9024195 14.693478,3.9008295 14.6982765,3.8699325 C14.7015915,3.8485935 14.7150555,3.835554 14.736675,3.8327505 C14.7594,3.8298105 14.773104,3.8154285 14.7798465,3.787461 C14.800278,3.7027335 14.9550975,3.6372975 14.974578,3.7051545 C14.978958,3.720429 14.9937615,3.7329255 15.007464,3.7329255 C15.031905,3.7329255 15.1149075,3.685785 15.1453005,3.654642 C15.1643685,3.635103 15.284775,3.619479 15.399042,3.621717 C15.475218,3.623217 15.488565,3.619182 15.517188,3.5860335 C15.534936,3.565482 15.549456,3.536694 15.549456,3.52206 C15.6381135,3.446325 15.7765035,3.4096065 15.891066,3.3671715 C15.942924,3.341658 16.0035345,3.316629 16.0257525,3.3115485 C16.1679735,3.2260695 16.2903405,3.109098 16.414536,3.0037635 C16.422636,2.9905635 16.479135,2.974305 16.566567,2.9599965 C16.6764945,2.942004 16.707246,2.9318385 16.713066,2.9115645 C16.717251,2.8970145 16.7341215,2.885904 16.7520585,2.885904 C16.7730045,2.885904 16.786887,2.874279 16.7931675,2.851494 C16.8053925,2.807145 16.873362,2.774889 16.9171215,2.792676 C16.9617915,2.8108305 17.0720385,2.7656295 17.083368,2.7245145 C17.094093,2.6856225 17.2388715,2.616612 17.266281,2.6373315 C17.356485,2.6418315 17.4042585,2.5073505 17.4245385,2.467218 C17.4448185,2.4270855 17.4377235,2.4189045 17.4890565,2.384454 C17.5403865,2.3500035 17.606724,2.334075 17.6932335,2.319618 C17.830014,2.313108 17.834223,2.311863 17.8974225,2.259237 C17.9329125,2.229687 17.970537,2.2055085 17.981031,2.2055085 C18.047163,2.2055085 18.171522,2.128179 18.171522,2.0870565 C18.171522,2.0776965 18.181812,2.062275 18.1943895,2.0527665 C18.2069595,2.0432565 18.217257,2.023749 18.217257,2.0094105 C18.217257,1.993443 18.228027,1.983339 18.2450385,1.983339 C18.2706855,1.983339 18.3544575,1.8867075 18.3544575,1.857123 C18.3544575,1.850178 18.3676425,1.844478 18.383763,1.844478 C18.40374,1.844478 18.418677,1.8290055 18.43068,1.795878 C18.449427,1.7441385 18.4543845,1.741839 18.537672,1.746216 C18.6154545,1.750311 18.6687915,1.7271795 18.708351,1.6722105 C18.934818,1.4879955 19.1594325,1.370628 19.4063325,1.2573945 C19.4440635,1.2196005 19.501455,1.1732355 19.5338715,1.154361 C19.6119525,1.065177 19.719642,1.029948 19.820487,0.9882 C19.906392,0.971877 19.990944,0.936297 20.07348,0.9057855 C20.1398595,0.8715105 20.20383,0.827652 20.266305,0.784104 C20.2923,0.766044 20.3478285,0.744423 20.3896995,0.736056 C20.4975195,0.7145145 20.627385,0.6705915 20.640528,0.6512205 C20.646663,0.6421755 20.682771,0.6324765 20.720769,0.6296565 C20.825259,0.6219015 20.900805,0.5991225 20.9752815,0.5529135 C21.034239,0.5163345 21.0514485,0.512187 21.113268,0.5196555 C21.1738815,0.5269755 21.190269,0.5233305 21.2288445,0.4939515 C21.3198825,0.4230705 21.4230675,0.4131975 21.532728,0.3955005 C21.5503125,0.4174035 21.6057,0.428157 21.7235085,0.4325355 C21.793092,0.455094 21.7932225,0.3873585 21.8369445,0.3590265 C21.880416,0.3439725 22.05504,0.336696 22.0689435,0.3493665 C22.0892835,0.3678915 22.1152815,0.3580965 22.13142,0.3258435 C22.1508525,0.286998 22.211925,0.2727825 22.2714525,0.2932485 C22.374324,0.2855235 22.4801985,0.219735 22.5817005,0.180795 C22.6359495,0.1480935 22.6446165,0.1467225 22.6889955,0.163821 C22.758636,0.19065 22.9230345,0.177096 23.0016615,0.1380465 C23.057157,0.0947445 23.1465135,0.1233615 23.156499,0.1223505 C23.156499,0.205614 23.198043,0.211659 23.277951,0.1400235 C23.3209185,0.108756 23.356896,0.0687615 23.3957175,0.03372 C23.4024975,0.022755 23.4268995,0.0094935 23.449956,0.004239 C23.488716,-0.004596 23.4918795,-0.002166 23.4918795,0.0364095 C23.4918795,0.066786 23.5065345,0.0898515 23.5457655,0.1212285 C23.670762,0.187668 23.81568,0.106011 23.962173,0.1122585 C24.1249815,0.131598 24.283785,0.1337655 24.446121,0.170289 C24.5600955,0.2102775 24.595854,0.144111 24.6838065,0.098373 C24.786726,0.113916 24.7469595,0.0804615 24.8429265,0.053244 C24.925059,0.085023 24.983421,0.088167 25.058259,0.1133205 C25.184502,0.072477 25.197276,0.1384875 25.2885585,0.1798515 C25.3330995,0.1932465 25.3484745,0.1910715 25.4015415,0.163905 C25.4908695,0.1340295 25.5877665,0.1460295 25.685217,0.1344045 C25.7197515,0.1438245 25.7600295,0.162927 25.774719,0.1768425 C25.8143025,0.2143395 25.9642425,0.224853 26.0330685,0.1949565 L26.086446,0.1717725 C26.126466,0.2417055 26.190792,0.2567265 26.251473,0.2990145 C26.354739,0.355449 26.352093,0.281184 26.4255585,0.261528 C26.4913575,0.261528 26.5012725,0.276378 26.4966165,0.3679455 C26.4969165,0.4856475 26.547747,0.455385 26.652102,0.4819125 C26.822472,0.4676175 26.977152,0.5200575 27.145437,0.503853 C27.1781205,0.511323 27.1820295,0.519219 27.1790445,0.5717235 C27.153528,0.640116 27.1866945,0.679431 27.1889895,0.7116375 C27.2137785,0.7173075 27.26226,0.7077075 27.3257115,0.684594 C27.3949425,0.6593655 27.4455855,0.6500265 27.496914,0.653019 L27.5836725,0.7226415 C27.6002565,0.8008155 27.640944,0.820305 27.7606065,0.807396 C27.829218,0.799986 27.840447,0.802806 27.8740545,0.8358375 C27.9134175,0.8745255 27.994626,0.8856075 28.0480215,0.8595795 C28.079634,0.8441685 28.0924815,0.8514045 28.1376645,0.910119 C28.182609,0.9775485 28.1408745,0.953874 28.1452845,1.0139925 C28.1567295,1.0271025 28.200891,1.0394505 28.2558075,1.044894 C28.3824585,1.053384 28.4958555,1.1221305 28.5989415,1.1711175 C28.6524135,1.272756 28.7641395,1.3011765 28.863057,1.337436 C28.8864795,1.400547 28.945137,1.348176 28.97094,1.351551 C28.983045,1.3075995 29.007447,1.307631 29.059587,1.351668 C29.0962125,1.382601 29.1039675,1.427922 29.072637,1.427922 C29.066727,1.427922 29.0474565,1.440177 29.029806,1.4551545 C28.9514115,1.515444 29.064372,1.540314 29.080101,1.579065 C29.0546505,1.616574 29.250939,1.6537005 29.313489,1.6232085 C29.3620725,1.599525 29.411397,1.6172985 29.401377,1.6548735 C29.387532,1.70682 29.438193,1.7445855 29.542209,1.7598435 C29.663007,1.7723535 29.7154755,1.865172 29.8144845,1.934622 C29.9781345,1.98138 30.1128015,2.0391525 30.2709645,2.0727045 C30.4033335,2.0824395 30.536697,2.1319425 30.646962,2.1642765 C30.663981,2.1947475 30.6745305,2.198136 30.741507,2.194647 C30.782973,2.192487 30.8525025,2.180817 30.896022,2.1687075 C30.9717765,2.1476325 30.977943,2.147943 31.0408455,2.1759675 C31.134531,2.2408995 31.2227205,2.249598 31.331892,2.2609635 C31.4187585,2.2610235 31.4856735,2.2686735 31.522449,2.28276 C31.7651295,2.29524 32.00625,2.320728 32.250591,2.3230425 C32.3205915,2.3446905 32.3294265,2.3441775 32.4966465,2.3087625 C32.63574,2.2747395 32.7741405,2.2868175 32.9119935,2.3022075 C32.9334225,2.3126475 32.983566,2.3090025 33.096048,2.2888125 C33.2188035,2.267772 33.3429975,2.2581975 33.466671,2.245299 C33.5361765,2.232579 33.593814,2.234154 33.7650345,2.253444 C33.921912,2.2711095 33.9853155,2.2734075 34.0081845,2.262264 C34.025199,2.253969 34.0584375,2.2469625 34.082046,2.2466925 C34.1659095,2.229219 34.248336,2.202345 34.330836,2.1817065 C34.400805,2.1620175 34.4738775,2.144757 34.5460005,2.1294555 C34.6410675,2.0941575 34.7594535,2.078715 34.919835,2.080695 C35.0142015,2.068875 35.1087315,2.030046 35.197167,1.9972425 C35.2310655,1.9972425 35.3045895,1.9875675 35.360556,1.9757475 C35.4165225,1.9639275 35.509116,1.9541175 35.566317,1.9539525 C35.6487705,1.9535025 35.7242175,1.9249635 35.802636,1.9019625 C35.9586585,1.86165 36.0912195,1.8840135 36.246363,1.824459 C36.3738825,1.791987 36.501846,1.7809365 36.632703,1.7455635 C36.7335435,1.7135685 36.84069,1.7054355 36.945216,1.6910595 C36.9787545,1.6820745 37.054215,1.670178 37.112907,1.664613 C37.2442965,1.652148 37.612191,1.569096 37.6262625,1.548717 C37.7106735,1.5330675 37.7983275,1.5193845 37.8834135,1.5039945 C37.9249485,1.4844285 37.9602825,1.481295 38.0725065,1.4872185 L38.3445315,1.4334465 C38.41824,1.3998645 38.493963,1.372389 38.5128075,1.372389 C38.554842,1.372389 38.6952585,1.3283385 38.7250755,1.3057995 C38.771331,1.2909795 38.8255275,1.2907635 38.8762395,1.2831735 C38.937702,1.2709785 39.0977505,1.2554445 39.231903,1.248663 C39.365352,1.2257685 39.501225,1.2309555 39.631557,1.226961 C39.7370835,1.256127 39.7906365,1.2524955 39.9527895,1.205184 C40.08645,1.1661855 40.103931,1.164159 40.180998,1.178733 C40.2719115,1.1959245 40.6169505,1.172658 40.653006,1.146906 C40.663236,1.139601 40.7822565,1.131096 40.9174965,1.1280135 C41.081064,1.1242785 41.213442,1.1131185 41.3128935,1.0946565 C41.4389055,1.0734645 41.4982515,1.07886 41.6057595,1.0904715 C41.641842,1.1202135 42.054456,1.1455755 42.127086,1.122513 C42.1517985,1.114668 42.1952175,1.112208 42.2235735,1.117053 C42.2519295,1.121898 42.316092,1.117953 42.366159,1.108263 C42.448287,1.092387 42.4630965,1.0932375 42.517599,1.116963 C42.5747955,1.1856465 42.6322995,1.164681 42.704883,1.190478 C42.9477945,1.180278 43.168734,1.29342 43.4153235,1.327164 C43.4637045,1.3456275 43.5109515,1.3517835 43.6833195,1.362084 C43.708473,1.363584 43.76124,1.359939 43.8005805,1.353984 C43.8624075,1.344609 43.87998,1.347759 43.9301595,1.3771245 C44.014602,1.426548 44.090238,1.4355525 44.1252195,1.4003415 C44.1680805,1.3572015 44.225325,1.364763 44.276139,1.4202765 C44.4270675,1.4676615 44.549814,1.4577525 44.697636,1.465833 C44.8108065,1.467498 44.9191695,1.513083 45.031488,1.538838 C45.1202565,1.527528 45.181083,1.553628 45.2651145,1.5945495 C45.2999835,1.6115715 45.351126,1.6223205 45.397251,1.6223205 C45.500124,1.6301955 45.579543,1.7162715 45.657492,1.768638 C45.657492,1.7999775 45.718023,1.820376 45.7893015,1.813059 C45.8721585,1.8314235 45.941136,1.8562485 46.0412295,1.8713535 C46.0828065,1.9077435 46.123335,1.929018 46.1625885,1.935057 C46.239534,1.975908 46.3017015,1.9756545 46.379229,1.993125 C46.406481,2.0489745 46.4723265,2.043801 46.514319,2.0666595 C46.6119885,2.0802195 46.709748,2.108469 46.803327,2.1360885 C46.9301685,2.1920985 47.043528,2.259033 47.1695505,2.3115195 C47.2446645,2.3229645 47.293239,2.3730855 47.3525295,2.4210015 C47.3802855,2.4263715 47.4132855,2.4386205 47.4258615,2.4482055 C47.447667,2.464827 47.617017,2.4877155 47.7024285,2.4855855 C47.734623,2.4848355 47.756013,2.501226 47.8090185,2.5675275 L47.8753335,2.6504745 C47.9552085,2.6445045 48.0348645,2.6361345 48.114585,2.6285295 C48.1744425,2.6216445 48.216717,2.6457315 48.2207505,2.689032 C48.2219505,2.701857 48.2248155,2.733384 48.2271105,2.7591015 C48.2294205,2.7848205 48.2385705,2.812479 48.247443,2.820561 C48.256323,2.828646 48.316911,2.8388445 48.382095,2.8432275 C48.510873,2.8461375 48.59085,2.9200215 48.6941295,2.98311 C48.740859,3.0237075 48.7880955,3.052539 48.807882,3.052539 C48.8264925,3.052539 48.8987385,3.0688575 48.9684285,3.088803 C49.0673655,3.1171185 49.104633,3.13536 49.1384655,3.172032 C49.3242435,3.276654 49.5051975,3.3110595 49.6820535,3.4431885 C49.722861,3.483567 49.7623125,3.519222 49.913379,3.545949 C50.1043005,3.538314 49.995771,3.6220785 50.0635875,3.684741 C50.0830485,3.7036095 50.1141915,3.7190475 50.1327945,3.7190475 C50.2666485,3.7769025 50.391492,3.8570295 50.5165545,3.918039 C50.5398285,3.964563 50.6261415,4.02228 50.6894685,4.0336605 C50.766474,4.0475055 50.8406415,4.078236 50.8406415,4.0963065 C50.938587,4.238469 51.079608,4.3054845 51.2403075,4.354509 L51.3285945,4.434303 C51.389568,4.632639 51.580059,4.733535 51.7097685,4.895853 C51.746757,4.913037 51.792783,4.9270965 51.8120505,4.9270965 C51.88722,4.9305465 51.921633,4.997718 51.966744,5.031072 C52.0133025,5.0938905 52.0563165,5.164617 52.10133,5.2259655 C52.106355,5.2541865 52.131747,5.306274 52.157751,5.3417145 C52.195347,5.392953 52.2202935,5.410761 52.279551,5.428665 C52.358061,5.443425 52.409004,5.5049385 52.464741,5.544069 C52.4979855,5.6165415 52.542963,5.6541555 52.673292,5.718477 C52.7520405,5.8056735 52.831191,5.888538 52.9088805,5.9732475 C52.9507065,6.0101925 52.967502,6.0616395 52.9982115,6.107946 C53.0194275,6.134139 53.044131,6.1778985 53.053107,6.205188 C53.1960105,6.303591 53.2844655,6.4890555 53.3387505,6.6176055 C53.3795745,6.6346635 53.4215745,6.658059 53.4320865,6.6695955 C53.539146,6.6808455 53.539581,6.7422285 53.5991685,6.807126 C53.622198,6.9181365 53.7038655,6.961707 53.7832155,7.029591 C53.964666,7.0860555 53.987583,7.2464175 54.0703845,7.4028615 C54.0832395,7.4165865 54.119844,7.441167 54.1517265,7.4574885 C54.2347305,7.4976615 54.269223,7.5852165 54.316404,7.655799 C54.382374,7.7889615 54.5204475,7.869435 54.6041535,8.0182665 C54.6384315,8.0326515 54.6704955,8.055351 54.675405,8.068716 C54.737166,8.093478 54.769623,8.151375 54.8194755,8.1966855 C54.8194755,8.2291335 54.881802,8.3151855 54.9053055,8.3151855 C54.939876,8.3329905 54.969069,8.3654355 55.0014405,8.390946 C55.068414,8.441064 55.0837095,8.5404885 55.105359,8.6165535 C55.2083715,8.674824 55.2746745,8.7668985 55.352271,8.853807 C55.471752,8.9560005 55.4572245,9.108369 55.5239745,9.249036 C55.5560025,9.3067845 55.596258,9.365169 55.629123,9.4232535 C55.652265,9.483603 55.6895025,9.5162205 55.71954,9.5624715 C55.7746785,9.6244515 55.8353325,9.6887595 55.8866085,9.7485315 C55.8866145,9.765903 55.908123,9.8207325 55.934403,9.8703735 C55.9606845,9.9200145 55.9953885,10.0074945 56.0115225,10.064772 C56.0276595,10.1220495 56.0497515,10.200156 56.0606175,10.2383415 C56.0714925,10.276527 56.098344,10.3390125 56.120304,10.377198 C56.166969,10.479603 56.226363,10.5776025 56.277225,10.675254 C56.310144,10.7108895 56.3156145,10.727616 56.3081145,10.7697135 C56.2106295,10.856949 56.2950195,10.877886 56.2934895,10.9554975 C56.3143875,11.1050625 56.3061795,11.224398 56.2669965,11.3327685 C56.227812,11.441142 56.157651,11.5385505 56.0546385,11.64426 C56.0407935,11.7005985 55.9839735,11.6970645 55.947141,11.724588 C55.9206405,11.7536715 55.951476,11.8785705 56.001858,11.9461875 C56.0223135,11.973642 56.039049,12.0026535 56.039049,12.010656 C56.0846145,12.0798825 56.1159165,12.157158 56.147157,12.2338035 C56.154477,12.3244125 56.192982,12.402099 56.221983,12.484878 C56.279064,12.539454 56.257641,12.6170655 56.2669485,12.682644 C56.2437315,12.695709 56.2505415,12.744996 56.2894335,12.8453655 C56.3108745,12.915663 56.3319135,12.974541 56.3533665,13.0446375 C56.420046,13.220463 56.432553,13.3809705 56.520408,13.547502 C56.552169,13.599219 56.5562535,13.620627 56.550231,13.703766 C56.544816,13.778508 56.549781,13.8141015 56.5726335,13.862538 C56.616825,13.916619 56.641065,13.9712235 56.679321,14.0284455 C56.679321,14.053632 56.8129695,14.2626975 56.841297,14.281821 C56.8581165,14.3708925 56.8619475,14.474394 56.879907,14.571675 C56.8057785,14.644683 56.8550025,14.702337 56.8473315,14.7724065 C56.911602,14.8530585 56.929713,14.9508225 56.961441,15.043263 C56.988639,15.164193 57.013923,15.2830335 57.029946,15.405669 C57.048168,15.490119 57.0544425,15.5746185 57.071583,15.65733 C57.063693,15.746814 57.0935565,15.851637 57.133305,15.874014 C57.150372,15.883629 57.177204,15.974502 57.1901835,16.0666635 C57.220842,16.17381 57.2883375,16.26918 57.341259,16.3677345 C57.3727875,16.469682 57.348069,16.576992 57.356109,16.6882095 C57.388263,16.746156 57.390543,16.7663295 57.387495,16.9659225 C57.363411,17.160435 57.352839,17.306679 57.426132,17.482554 C57.4556145,17.5296135 57.463077,17.621667 57.438732,17.638017 C57.391482,17.6697525 57.378366,17.7123945 57.396654,17.774841 C57.453219,17.892822 57.4189485,17.992035 57.43509,18.115731 C57.44448,18.2111145 57.460227,18.3091125 57.4750305,18.4047015 C57.516897,18.4644075 57.51339,18.5393235 57.519003,18.6132195 C57.530013,18.6427485 57.539874,18.714474 57.540918,18.772605 C57.5621175,18.9009015 57.5728215,19.0304475 57.57165,19.1558775 C57.58086,19.293114 57.57615,19.4204235 57.600558,19.5531705 C57.6362535,19.609428 57.61626,19.725816 57.614883,19.7789925 C57.644712,19.827108 57.6708375,19.890966 57.6930765,19.947183 C57.722421,19.9958115 57.7464315,20.040378 57.7464315,20.046216 C57.7464315,20.052051 57.723096,20.064522 57.6945735,20.073915 C57.6174975,20.0993025 57.60135,20.122647 57.6249585,20.174562 C57.6896865,20.2248165 57.6950175,20.294145 57.7291665,20.3598165 C57.7364415,20.3639115 57.745965,20.396172 57.750339,20.431509 C57.754704,20.466846 57.771642,20.5122915 57.7879635,20.5324995 C57.804285,20.5527045 57.8224575,20.586897 57.8283495,20.6084805 C57.8370945,20.6404935 57.8319345,20.6528295 57.8003685,20.675445 C57.7440435,20.715801 57.7558245,20.8284525 57.8186145,20.849919 C57.8784195,20.870361 57.89943,20.9284305 57.865125,20.9784645 C57.879405,21.057747 57.930774,21.161598 57.959856,21.2516655 C58.0125525,21.304935 57.9907425,21.368571 58.0050495,21.4361715 C58.0131345,21.4499415 58.0228785,21.4885785 58.0266975,21.5220435 C58.045974,21.691002 58.0568325,21.7511025 58.071036,21.7674615 C58.0485195,21.8142735 58.081731,21.8548725 58.087182,21.899448 C58.1307495,21.936603 58.1639085,22.02312 58.1535315,22.072563 C58.1493465,22.092537 58.1589315,22.145994 58.174839,22.19136 C58.168869,22.2605055 58.2255525,22.2985095 58.249215,22.3485075 C58.292904,22.381992 58.336266,22.4795145 58.3188675,22.505157 C58.3199175,22.542561 58.343802,22.5769455 58.35612,22.61241 C58.423827,22.671798 58.4562975,22.7586765 58.4934045,22.840701 C58.4934105,22.852791 58.529982,22.885632 58.5746745,22.9136685 C58.6193655,22.941705 58.66944,22.9786725 58.685952,22.9958175 C58.729362,23.0408985 58.780935,23.1707265 58.781073,23.235276 C58.781223,23.319501 58.8496995,23.4489045 58.9030215,23.465835 C58.95381,23.4983865 59.0023605,23.537265 59.049999,23.57592 C59.060574,23.6062875 59.127282,23.672673 59.1472125,23.672673 C59.1688695,23.7168015 59.200377,23.7595995 59.225862,23.801268 C59.248404,23.814093 59.2556445,23.833752 59.2556445,23.8821465 C59.2686495,23.9575635 59.3145255,24.0226305 59.3559165,24.0879885 C59.3846805,24.119127 59.394495,24.1445205 59.3925495,24.182781 C59.3868645,24.2945355 59.3932995,24.3220155 59.4355005,24.3660315 C59.4589605,24.390507 59.5141755,24.4757085 59.558202,24.555369 C59.6022285,24.635031 59.64306,24.700407 59.6489385,24.70065 C59.748501,24.756669 59.73678,24.8710215 59.752278,24.9779205 C59.757453,25.019925 59.766033,25.0605405 59.7713445,25.068177 C59.7766545,25.075812 59.7850245,25.1258535 59.789937,25.179375 C59.797482,25.261536 59.80761,25.2882585 59.855016,25.351032 C59.885895,25.391922 59.911161,25.429536 59.911161,25.4346195 C59.911161,25.4397045 59.896626,25.4551965 59.8788615,25.4690505 C59.849937,25.491609 59.8476675,25.50318 59.8571475,25.5797505 C59.8589925,25.6330335 59.889888,25.6803255 59.9047455,25.7259675 C59.8995705,25.7335875 59.9065605,25.8136515 59.920263,25.903884 C59.933973,25.9941165 59.947305,26.1304275 59.9498985,26.2067985 C59.9545485,26.3438115 59.974215,26.5547115 59.9954775,26.695689 C60.0045675,26.7559785 60.0010125,26.77632 59.9740575,26.817924 C59.9562765,26.845374 59.937162,26.903433 59.931585,26.946942 C59.926005,26.990451 59.912838,27.032298 59.9023245,27.0399345 C59.8790445,27.056844 59.869791,27.20043 59.8872345,27.2740395 C59.903673,27.343398 59.8815195,27.356463 59.7962595,27.327681 L59.7315075,27.3058215 L59.6269665,27.4039875 C59.551995,27.47439 59.498709,27.5109915 59.43858,27.5333985 C59.3924655,27.5505825 59.332008,27.5856135 59.3042295,27.6112425 C59.250192,27.656649 59.189202,27.6850755 59.12979,27.7187775 C59.0001285,27.7861965 58.8748995,27.876984 58.757202,27.9633285 C58.748577,27.9633285 58.716786,27.981234 58.686552,28.003119 C58.638378,28.0330785 58.5863745,28.062153 58.53915,28.0899825 C58.53915,28.112751 58.356375,28.268811 58.329537,28.2689595 C58.314867,28.269039 58.258269,28.310061 58.2037695,28.3601145 C58.1458695,28.4132925 58.086978,28.4544075 58.062093,28.4590245 C57.9806145,28.5185265 57.8980725,28.574961 57.8073285,28.627299 C57.769941,28.686264 57.709683,28.7440215 57.685041,28.7734785 C57.609699,28.7869935 57.5469825,28.7966685 57.483252,28.812525 C57.443346,28.8487605 57.396966,28.876569 57.354036,28.908432 C57.342681,28.923012 57.304509,28.9365135 57.2583615,28.9422945 C57.175911,28.9526295 57.1366485,28.977306 57.1366485,29.0188065 C57.1366485,29.0330865 57.1302585,29.0483625 57.1224585,29.052756 C57.0728475,29.049516 57.093363,28.971267 57.0806505,28.935663 C57.0634935,28.936113 57.014694,29.0275605 57.014694,29.0592435 C57.014694,29.0757135 57.000684,29.087265 56.9753805,29.0916705 C56.9292975,29.0996955 56.913198,29.0755335 56.937297,29.034519 C56.946327,29.01915 56.953716,28.994775 56.953716,28.9803525 C56.953716,28.9568445 56.942796,28.9544835 56.8482585,28.957542 C56.7912795,28.971057 56.6833755,28.9771875 56.6544525,28.9811985 C56.6470725,28.955508 56.629323,28.9528215 56.4132435,28.9447005 C56.2849575,28.9398705 56.1612525,28.929444 56.1383445,28.921509 C56.078652,28.9008375 55.6068885,28.919229 55.528347,28.945284 C55.4948085,28.956414 55.4169045,28.9675095 55.3552245,28.969947 C55.2935445,28.972377 55.235577,28.981212 55.2264075,28.9895625 C55.2155925,28.9994025 55.114968,29.0047485 54.9402465,29.0047485 C54.724572,29.0047485 54.667131,29.0007735 54.652584,28.9847985 C54.642579,28.9738335 54.5954385,28.96101 54.547815,28.9563195 C54.365994,28.938411 54.351444,28.934637 54.3346335,28.901034 C54.3153315,28.862442 54.161223,28.8206805 54.0267555,28.8175995 C53.93712,28.8155445 53.91495,28.8098895 53.8230315,28.765695 C53.754189,28.73259 53.566368,28.7236995 53.5070775,28.75074 C53.4868665,28.75995 53.3880075,28.78689 53.2873935,28.8105885 C53.0151075,28.874721 52.987239,28.8831075 52.930017,28.9181085 C52.8570705,28.9627305 52.8289755,28.9548405 52.834974,28.891419 C52.911546,28.7872815 53.020125,28.7248215 53.121243,28.65054 C53.1704805,28.6163325 53.2187925,28.5461175 53.2187925,28.5087645 C53.2187925,28.4979795 53.2115775,28.476876 53.2027575,28.461867 C53.186859,28.434807 53.186352,28.4348145 53.1432375,28.462767 C53.11932,28.47828 53.077449,28.4909715 53.050188,28.4909715 C53.020815,28.4909715 52.9802805,28.5051015 52.9506825,28.525668 C52.8347325,28.5546045 52.7750625,28.6000995 52.678374,28.651098 C52.6467585,28.6672215 52.613535,28.692384 52.604544,28.707018 C52.558743,28.7815635 52.4835075,28.7918355 52.498263,28.721523 C52.546356,28.5927855 52.515417,28.5555585 52.616106,28.4691405 C52.6341195,28.4297985 52.672434,28.4174985 52.7021055,28.3902945 C52.717743,28.3630665 52.750782,28.325619 52.8640425,28.2067395 C52.880994,28.1889465 52.8902565,28.155 52.890564,28.1095395 L52.891014,28.039683 C52.716723,28.027023 52.6053045,28.149864 52.4870325,28.2412125 C52.4870325,28.268889 52.462527,28.2886575 52.4274705,28.2892575 C52.4156805,28.2894075 52.3916625,28.3114935 52.374114,28.3382235 C52.3315485,28.403061 52.256133,28.47708 52.2326385,28.47708 C52.213326,28.361382 52.273347,28.2223245 52.3455,28.104804 C52.363458,28.102434 52.403604,28.0711905 52.4347095,28.035375 C52.530105,27.930696 52.659273,27.808116 52.7355225,27.7249575 C52.840371,27.659502 52.9199925,27.6302655 52.9961685,27.54942 C53.034051,27.529062 53.0497545,27.508947 53.057634,27.470688 C53.075808,27.3824445 53.1117945,27.379428 53.157276,27.338586 C54.4471815,26.180283 53.241591,27.3025035 53.2768185,27.2750385 C53.3120475,27.247572 53.3652285,27.2189745 53.3949975,27.2114865 C53.4247695,27.2040015 53.4533685,27.187806 53.4585525,27.1754985 C53.482344,27.119025 53.564061,27.069801 53.6715435,27.0472035 C53.7151455,27.0380385 53.7588615,27.021711 53.768688,27.010926 C53.8562955,26.9809575 53.9395275,26.936283 54.022767,26.893581 C54.053949,26.86284 54.099759,26.858169 54.1392705,26.8399965 C54.213726,26.804757 54.296961,26.796636 54.3773595,26.782422 C54.4150905,26.774622 54.4974105,26.76261 54.560295,26.755722 C54.623178,26.748837 54.6961275,26.7361815 54.722403,26.7276075 C54.7486785,26.7190275 54.837858,26.709948 54.9205815,26.707422 C55.072704,26.702772 55.116243,26.699247 55.322523,26.674782 C55.4663535,26.65773 55.486056,26.650122 55.5140385,26.600838 C55.534278,26.565186 55.5446745,26.5608645 55.6102005,26.5608645 C55.681368,26.5608645 55.734129,26.533395 55.734129,26.496339 C55.734129,26.4688545 55.832847,26.366466 55.8593475,26.366466 C55.8760665,26.366466 55.886574,26.356146 55.886574,26.339712 C55.945428,26.2864065 55.948944,26.219835 55.967919,26.1433245 L55.968369,25.8966855 C55.9128675,25.846131 55.9123725,25.8459945 55.8971805,25.87701 C55.8647115,25.9481925 55.8504645,25.863075 55.815669,25.852698 C55.7671275,25.820325 55.7900535,25.7570775 55.7821905,25.7277285 C55.766721,25.7277285 55.741794,25.7153835 55.726797,25.7002845 C55.711797,25.68519 55.694259,25.6758075 55.6878165,25.6794345 C55.6767015,25.6856895 55.618239,25.6098375 55.5939405,25.5576285 C55.5877155,25.5442635 55.574592,25.53333 55.5647655,25.53333 C55.5549405,25.53333 55.539282,25.524225 55.5299715,25.5131055 C55.3693995,25.402857 55.213317,25.414944 55.059309,25.344075 C55.023792,25.339125 54.975561,25.3262595 54.952131,25.3154955 C54.917376,25.299528 54.9000135,25.299057 54.857856,25.3129455 C54.8021985,25.331277 54.758439,25.3144605 54.758439,25.2747495 C54.758439,25.251102 54.6196185,25.2480015 54.5732355,25.2706095 C54.549894,25.2819945 54.5363535,25.2808245 54.5170695,25.2657795 C54.5030895,25.2548745 54.4801665,25.2422565 54.466119,25.2377355 C54.4386315,25.2288855 54.3452745,25.2472605 54.2898525,25.272417 C54.2642535,25.284042 54.2349105,25.283352 54.1723575,25.269687 C54.116919,25.257567 54.0396585,25.25415 53.9417865,25.259472 C53.8053105,25.266882 53.7940335,25.265517 53.7869115,25.240719 C53.748171,25.2079425 53.677785,25.1986005 53.624223,25.185153 C53.5775505,25.162368 53.5501455,25.1582265 53.4932325,25.1653575 C53.3677515,25.125255 53.29374,25.0826865 53.1413565,25.10031 C53.1294165,25.08969 53.0865555,25.0696095 53.046108,25.055688 C52.9853925,25.027995 52.9358565,24.9925155 52.880163,24.957678 L52.617342,24.9154275 L52.592673,24.8544705 C52.566483,24.7897575 52.5297345,24.7643025 52.4404755,24.7490505 C52.3976295,24.7417305 52.3812525,24.7456455 52.358388,24.7686525 C52.231185,24.8268015 52.1286435,24.749451 52.012743,24.698568 C51.968589,24.655515 51.965748,24.6467955 51.9735225,24.578187 C51.9800925,24.52023 51.9769575,24.502491 51.9590175,24.4962255 C51.92568,24.4845705 51.9000765,24.5146935 51.9000765,24.56556 C51.9000765,24.605055 51.8951565,24.6101025 51.8554185,24.611379 C51.788607,24.613524 51.69063,24.5904165 51.6601995,24.5653305 C51.6453945,24.5531355 51.6332955,24.529695 51.6332955,24.513246 C51.6332955,24.496797 51.6235605,24.47121 51.611658,24.456384 C51.5904615,24.429981 51.589212,24.430122 51.5505615,24.463194 C51.512802,24.4955055 51.5089755,24.4960335 51.461616,24.475464 C51.3969555,24.461784 51.3381345,24.429372 51.278265,24.4069875 C51.263265,24.3926025 51.2455155,24.3808335 51.2388195,24.3808335 C51.2321145,24.3808335 51.2137965,24.3464055 51.198093,24.3043275 C51.153861,24.185799 51.025236,24.116208 50.9930235,24.1933785 C50.9841585,24.214632 50.966565,24.2280915 50.947668,24.2280915 C50.90619,24.2145465 50.9112825,24.147006 50.8931475,24.106593 C50.8801425,24.093228 50.857419,24.0674415 50.842659,24.04929 C50.7366555,24.029841 50.718705,23.947734 50.6673,23.883951 C50.5888605,23.893041 50.439003,23.8538535 50.410251,23.851278 C50.3945835,23.793678 50.367636,23.74107 50.343654,23.6856225 C50.325027,23.6495385 50.2744815,23.616741 50.2572195,23.5995525 C50.2468845,23.6068275 50.208801,23.6099325 50.1726045,23.6064525 C50.1012885,23.5996125 50.078349,23.571936 50.078349,23.4927315 C50.069289,23.457849 50.048382,23.432679 50.0326155,23.4010845 C50.0326155,23.3801895 50.0180055,23.353776 49.998315,23.339067 C49.9765245,23.1847395 49.904451,23.154588 49.7732265,23.0961555 C49.7534835,23.0744895 49.730694,22.994748 49.719723,22.908954 C49.727973,22.842474 49.726863,22.7457435 49.727403,22.7332425 C49.677864,22.60011 49.5925935,22.7294025 49.558941,22.7284425 C49.524285,22.7284425 49.5033585,22.6897605 49.493031,22.6066125 C49.499871,22.532748 49.509294,22.505202 49.5142245,22.4744625 C49.488834,22.436043 49.462038,22.397043 49.436985,22.3598745 C49.399095,22.3491195 49.382766,22.330698 49.3513785,22.2632745 C49.3300455,22.2174525 49.3048095,22.164954 49.295298,22.146612 C49.273926,22.1053995 49.2781515,21.992481 49.303443,21.928764 C49.3313865,21.8583765 49.299303,21.835218 49.1642175,21.8282655 C49.055313,21.8226555 49.0290285,21.8319705 49.0074915,21.8838135 C48.9508275,21.9229425 48.889953,21.9648015 48.8414025,21.996978 C48.7826205,22.009938 48.7147395,22.046541 48.661014,22.0758885 C48.627753,22.0759305 48.5915475,22.0878435 48.5660985,22.1071305 C48.5301435,22.1343735 48.52386,22.151325 48.516276,22.241541 C48.511506,22.298322 48.504726,22.347399 48.5012055,22.3506015 C48.4458705,22.3330125 48.4004685,22.313523 48.3485565,22.294416 C48.263064,22.299231 48.188016,22.367091 48.188016,22.4395695 C48.135702,22.504434 48.0804,22.5403605 48.02145,22.6316625 C47.9856015,22.743663 47.8682415,22.7288205 47.76225,22.8210945 C47.709774,22.878207 47.6582175,22.9189215 47.6213685,22.9323495 C47.573376,22.9498425 47.560122,22.9635585 47.5452855,23.011086 C47.4886575,23.1387975 47.3612505,23.151849 47.2428525,23.217216 C47.2248375,23.1420045 47.143917,23.18181 47.083605,23.173065 C47.031849,23.155143 46.988538,23.188893 46.975908,23.2569855 C46.970133,23.2881075 46.9575195,23.316069 46.9478745,23.319123 C46.9297905,23.324853 46.853493,23.3362515 46.8197955,23.338269 C46.8093105,23.338869 46.7797305,23.3815875 46.7540775,23.433138 C46.726833,23.5243965 46.6623675,23.5630095 46.6092105,23.621235 C46.589844,23.701545 46.5613395,23.726367 46.4831955,23.730963 C46.415079,23.734968 46.411425,23.737353 46.3981155,23.7864225 C46.3858155,23.831769 46.379646,23.8369425 46.344759,23.831175 C46.282263,23.82084 46.2636495,23.84271 46.2535905,23.9382525 L46.2443355,24.026181 L46.109358,24.040791 C45.960129,24.0569505 45.9221595,24.080151 45.939189,24.144771 C45.9646215,24.241272 45.9647595,24.3114045 45.939639,24.3802575 C45.8725245,24.45717 45.7907505,24.5232645 45.710232,24.58911 C45.705972,24.58911 45.676272,24.573309 45.644232,24.553995 C45.5785755,24.56388 45.5577435,24.5000595 45.5354505,24.4861575 C45.5354505,24.446241 45.5277405,24.4325715 45.498312,24.42036 C45.438471,24.395526 45.408432,24.414375 45.419808,24.4696185 C45.427143,24.505212 45.423648,24.5184915 45.405273,24.524916 C45.414033,24.533931 45.459741,24.5959125 45.4838175,24.6272955 C45.4803675,24.6635715 45.4768575,24.6979395 45.4760175,24.7036665 C45.454146,24.7124715 45.427659,24.721167 45.4049085,24.7294005 C45.315078,24.6856755 45.2137275,24.783099 45.193956,24.788997 C45.207456,24.821052 45.1709235,24.91989 45.1327005,24.954705 C45.1097175,24.9756405 45.0931755,25.011714 45.086481,25.055508 C45.080751,25.093017 45.066747,25.1351895 45.0553725,25.1492265 C44.9885685,25.1750085 44.9219835,25.08936 44.8668105,25.0334505 C44.8352595,25.0334505 44.8189665,25.058922 44.8189665,25.1082435 C44.8189665,25.1511675 44.729193,25.236138 44.6716875,25.2476445 C44.6147055,25.2590445 44.571582,25.2987045 44.569176,25.341924 C44.548053,25.386525 44.4979905,25.4119515 44.462028,25.4473275 C44.428416,25.5059295 44.3598915,25.556961 44.2894695,25.5758355 C44.2324365,25.591122 44.223783,25.5989385 44.2150515,25.6430745 C44.2011615,25.713234 44.17515,25.754571 44.1327525,25.7738235 C44.102832,25.7874135 44.0954475,25.802796 44.0915205,25.859724 C44.1011805,25.927359 44.037675,25.9615875 44.010789,26.012448 C43.9819875,26.020773 43.980156,26.0286285 43.9894875,26.1037575 C43.9971975,26.165799 43.9949625,26.185956 43.9803525,26.185956 C43.9527855,26.226717 43.9129935,26.2019325 43.8861165,26.2083075 C43.818612,26.183256 43.7939745,26.2734765 43.7618685,26.324052 C43.6848345,26.3508915 43.6208295,26.4639525 43.6040535,26.602824 L43.5917835,26.704437 L43.5047805,26.705487 C43.433724,26.686407 43.393716,26.746803 43.336164,26.7682125 C43.2803925,26.8710465 43.2083235,26.9381625 43.1375325,27.0206625 C43.047192,27.0664365 43.050168,27.1273005 43.002357,27.1916205 C42.965574,27.2433285 42.9075945,27.2727135 42.8618865,27.311271 C42.8352705,27.3922245 42.781836,27.4554015 42.739191,27.526842 C42.700878,27.569229 42.6758115,27.612156 42.6520845,27.644094 C42.562131,27.652929 42.538584,27.725868 42.4945695,27.798726 C42.476013,27.845175 42.43818,27.87378 42.410781,27.910248 C42.345285,27.9656685 42.3224205,28.057647 42.289452,28.13682 C42.179091,28.259616 42.176883,28.3835715 42.151836,28.4394645 C42.0115935,28.6446525 42.0537825,28.6622175 42.227394,28.7141505 C42.227394,28.7540265 42.194529,28.764381 42.109737,28.751217 C42.035358,28.739667 42.029568,28.735857 42.020646,28.6925355 C42.005676,28.619814 41.938266,28.615191 41.9151825,28.6853055 C41.9330355,28.786296 41.8014195,28.7551245 41.7907455,28.7616765 C41.7487905,28.723461 41.6766735,28.7357985 41.6234445,28.7902965 C41.5812855,28.8334605 41.5637955,28.8407535 41.4858555,28.847673 C41.4367455,28.852038 41.386275,28.8635235 41.373699,28.8732075 C41.361129,28.8828975 41.2993815,28.8984555 41.236497,28.9077855 C41.1736125,28.9171155 41.0912925,28.9305855 41.0535615,28.9377135 C40.9120365,28.964451 40.882548,28.9657785 40.8147225,28.9484835 C40.718433,28.923927 40.530714,28.9237485 40.498392,28.9481835 C40.425843,28.9364835 40.3637985,28.9641585 40.297686,28.9729935 C40.27323,28.9746585 40.205202,28.9813785 40.14651,28.9879335 C40.087818,28.9944735 39.97929,28.9979985 39.9053355,28.9957485 C39.756777,28.9558845 39.696036,28.9516965 39.5587725,28.9609035 C39.4711665,28.9600035 39.344013,28.988184 39.324192,29.012874 C39.2443335,29.018379 39.14829,29.018454 39.0578265,29.0280375 C39.00261,29.0307825 38.9197035,29.0364675 38.8735875,29.0406675 C38.734173,29.0333625 38.6189175,29.0834955 38.4928305,29.122923 C38.453124,29.1621315 38.3898465,29.1718875 38.3405475,29.1978585 C38.252085,29.2157325 38.2460235,29.2151085 38.167167,29.1799665 C38.122224,29.1599385 38.0775615,29.143551 38.0679165,29.143551 C38.0810865,29.1745605 38.0719515,29.219034 38.0732415,29.2432785 C37.210818,28.9302 37.964898,29.217531 36.987066,29.217162 C36.8771145,29.1283695 36.770784,29.2006155 36.644601,29.226867 C36.5789265,29.2593915 36.4940205,29.219547 36.4345065,29.206167 C36.4271265,29.188482 36.415215,29.1707085 36.4080375,29.166669 C36.4008675,29.162634 36.323262,29.156004 36.235596,29.151939 C36.0992715,29.145624 36.0725205,29.140434 36.050769,29.11614 C36.0184005,29.068416 35.97156,29.020377 35.9035665,28.9890285 C35.8709985,28.92996 35.8623645,28.923924 35.796855,28.914432 C35.7044985,28.894602 35.588526,28.915032 35.5078005,28.923372 C35.464752,28.914207 35.430642,28.8830745 35.3923515,28.8630765 L35.354187,28.818657 C35.352837,28.86669 35.3022405,28.8835695 35.275863,28.9165305 C35.275863,28.9525095 35.266968,28.959651 35.188206,28.986879 C35.041926,29.0374515 35.0319495,29.038545 35.0319495,29.0040315 C35.0629425,28.941657 35.1181185,28.888413 35.1651315,28.835721 C35.194827,28.7884755 35.1953055,28.7834265 35.1717165,28.7661735 C35.100708,28.714236 34.9607835,28.6714395 34.861983,28.6714395 L34.7880345,28.6714395 C34.721811,28.74252 34.65846,28.8092445 34.5513255,28.8519525 C34.4665515,28.893372 34.449699,28.8974745 34.4372445,28.8797235 C34.527234,28.758828 34.5850965,28.7002755 34.61523,28.5533025 C34.598322,28.458375 34.516305,28.451526 34.46937,28.403238 C34.372803,28.5449895 34.3577865,28.608963 34.2550125,28.6776435 C34.2412725,28.700148 34.19028,28.743288 34.141701,28.77351 C34.0706055,28.8177405 34.050732,28.8246555 34.0398225,28.808964 C34.0194795,28.7796945 34.0230735,28.7547525 34.0476375,28.7547525 C34.1668095,28.663467 34.2098055,28.523265 34.274868,28.396452 C34.126521,28.3356735 33.9884475,28.4124675 33.8434695,28.524633 C33.81633,28.597092 33.6934095,28.6591185 33.6342825,28.709028 C33.609402,28.5986685 33.677262,28.5304815 33.736161,28.4494065 C33.7857885,28.402356 33.826497,28.340844 33.874734,28.288455 C33.9076515,28.26132 33.9107535,28.2294645 33.887799,28.1542005 C33.875079,28.112499 33.864633,28.1021295 33.835314,28.1021295 C33.712233,28.15209 33.6603,28.275759 33.5934255,28.3878135 C33.6019605,28.42062 33.5637795,28.4568525 33.5367255,28.441623 C33.5060865,28.424373 33.5309355,28.286445 33.5751555,28.2283245 C33.605712,28.1615325 33.6381405,28.09683 33.6658095,28.029528 C33.7598955,27.9066 33.7654455,27.8594475 33.9276435,27.834831 C34.075989,27.528351 34.403499,27.51987 34.63674,27.3384825 C34.7063085,27.3380325 34.7618055,27.294054 34.8205875,27.261636 C34.886223,27.248511 34.958172,27.2129025 35.0052525,27.170259 C35.1315345,27.0143805 35.2447395,26.9588985 35.4056925,26.9026155 C35.5119675,26.8399635 35.65446,26.8615425 35.7865425,26.830323 C35.806908,26.818173 35.8666935,26.804841 35.9193975,26.800707 C35.9720985,26.796567 36.0238095,26.786997 36.0343095,26.7794235 C36.2936805,26.762814 36.5521965,26.730477 36.811089,26.703774 C36.9518925,26.700399 37.084245,26.698134 37.1052075,26.698734 C37.5787575,26.712324 37.65216,26.710674 37.676745,26.685924 C37.69113,26.671449 37.713843,26.6639775 37.7310405,26.668074 C37.7473005,26.671944 37.8172275,26.667474 37.8864315,26.658279 C37.9556355,26.649024 38.064162,26.6417115 38.1276,26.6420445 C38.2416345,26.6426445 38.2432575,26.642148 38.2707705,26.598267 C38.2860765,26.573856 38.3153925,26.5373355 38.33592,26.5171095 C38.3672535,26.486235 38.3704575,26.4756045 38.3558985,26.450826 C38.3421285,26.4273885 38.3434185,26.4168945 38.3621385,26.3998425 C38.3750985,26.3880375 38.3899395,26.3630205 38.39511,26.3442615 C38.4264645,26.3095245 38.448396,26.257524 38.4667965,26.2275705 C38.4920235,26.2275705 38.499507,26.2028235 38.529717,26.0195355 C38.545779,25.9220895 38.546919,25.885338 38.534097,25.8781245 C38.511753,25.8655395 38.4924615,25.8766245 38.4924615,25.902078 C38.4924615,25.927941 38.4483255,25.9281525 38.4374535,25.902378 C38.4561465,25.8523065 38.4436935,25.800762 38.4468735,25.7491605 C38.4328935,25.687836 38.4340785,25.665654 38.4535635,25.623162 C38.4831945,25.558566 38.4846525,25.5637185 38.435298,25.5585465 C38.3957325,25.5544065 38.3932875,25.5500565 38.3918205,25.481253 C38.447307,25.393464 38.3790105,25.3925385 38.3705085,25.3337535 C38.3705085,25.2919845 38.3767635,25.2824805 38.409162,25.2750765 C38.420367,25.2627765 38.406612,25.2418875 38.405352,25.225293 C38.372802,25.219578 38.3434545,25.1358465 38.3666115,25.1147535 C38.3795115,25.0754265 38.3654115,25.0286565 38.3648865,24.98604 C38.3701065,24.97107 38.3752065,24.8803275 38.3762565,24.78438 C38.3779515,24.626859 38.3752065,24.6077355 38.34825,24.5873025 C38.3250345,24.5697255 38.31699,24.542565 38.3122185,24.4656525 C38.3084235,24.404517 38.3126685,24.359424 38.3232435,24.34779 C38.339784,24.3296385 38.3570925,24.1892625 38.3583225,24.0632955 C38.3353725,23.9692545 38.2953405,23.8958985 38.27007,23.8134735 C38.229273,23.7965415 38.224089,23.757129 38.247891,23.644881 C38.255181,23.6105145 38.255676,23.576148 38.248941,23.56851 C38.2327785,23.550045 38.1999915,23.426421 38.1973845,23.3741115 C38.1961845,23.3512005 38.1864795,23.326146 38.175693,23.3184345 C38.1488235,23.2342815 38.169543,23.115948 38.179923,23.0389275 C38.160918,23.012511 38.157546,22.989792 38.166138,22.946037 C38.185644,22.846629 38.1818985,22.7655195 38.154798,22.7006595 C38.140443,22.666293 38.1294375,22.6256775 38.1303405,22.610403 C38.050926,22.435725 38.0721435,22.3276275 38.038167,22.1825775 C38.048292,22.1658585 38.0547315,22.1412 38.052477,22.127784 C38.082462,22.1018835 38.115201,22.050393 38.121462,22.042668 C38.1005205,22.013553 38.100312,22.0013085 38.119632,21.935196 C38.131617,21.894156 38.141517,21.8401185 38.141616,21.8151075 C38.141757,21.77946 38.150031,21.766785 38.1799095,21.756438 C38.2008705,21.749178 38.21802,21.737505 38.21802,21.7304955 C38.21802,21.709866 38.177463,21.7017345 38.1589005,21.7186455 C38.1304935,21.7445205 38.1026835,21.7086405 38.121216,21.670032 C38.132226,21.50913 38.167836,21.4139385 38.157114,21.236022 C38.142204,21.175809 38.147559,21.15936 38.18208,21.15936 C38.2350885,21.15936 38.187435,21.124074 38.1253335,21.1173435 C38.0429745,21.1084185 38.0198415,21.0962385 38.0198415,21.061812 C38.0198415,21.03789 38.0472825,20.9699085 38.082681,20.906136 C38.090046,20.892876 38.096106,20.8647555 38.096166,20.8436505 C38.1469035,20.787648 38.096466,20.7035595 38.096616,20.6872485 C38.079252,20.6872485 38.0656485,20.6780985 38.0656485,20.6664195 C38.106906,20.6530395 38.1430785,20.611941 38.17236,20.59134 C38.17236,20.570775 38.16426,20.5465755 38.154375,20.537565 C38.140935,20.52531 38.140695,20.513226 38.153475,20.4896595 C38.168115,20.462562 38.1802365,20.408511 38.1901065,20.3262225 C38.1914565,20.3147625 38.2035015,20.2980285 38.2168065,20.2890285 C38.2045515,20.238486 38.2447155,20.0771745 38.2627935,19.953894 C38.2487235,19.897053 38.2635435,19.864029 38.3177655,19.831686 C38.338431,19.819356 38.3553405,19.802169 38.3553405,19.7935005 C38.355339,19.7689695 38.2610085,19.706406 38.210361,19.697346 C38.185293,19.692861 38.133912,19.682826 38.0961825,19.6750575 C37.9322865,19.6357725 37.782918,19.715655 37.745004,19.8634845 C37.7162325,19.989717 37.625604,20.0917215 37.5987825,20.0280585 C37.5940425,20.0168085 37.6017675,19.968384 37.6159455,19.920444 C37.671816,19.73154 37.675719,19.6491825 37.6280055,19.665858 C37.6158255,19.670118 37.585839,19.673598 37.5613725,19.673598 C37.514403,19.7052975 37.473486,19.779705 37.43304,19.8402255 C37.42047,19.8497355 37.410174,19.8784725 37.410174,19.904091 C37.410174,19.9633455 37.3492725,20.007951 37.309461,19.9778565 C37.2826335,19.903374 37.328847,19.779693 37.341573,19.734162 C37.3173135,19.6946685 37.2707565,19.690407 37.2326625,19.666869 C37.091583,19.616067 37.12272,19.677234 37.1213565,19.861611 C37.095747,19.9130595 37.074792,19.9779795 37.074792,20.005881 C37.074792,20.0502525 37.068207,20.0593275 37.022256,20.078301 C36.9580845,20.1047925 36.937389,20.090811 36.938088,20.021433 C36.938538,19.974369 36.9831915,19.8357195 37.0039515,19.8168105 C37.025448,19.7972295 37.0118565,19.770882 36.9760485,19.762695 C36.9160845,19.748985 36.8358585,19.8262035 36.823239,19.9097745 C36.811104,19.9901805 36.765099,20.0623965 36.7260225,20.0623965 C36.6851055,20.0623965 36.675606,20.0285565 36.6995895,19.968255 C36.7312305,19.888707 36.7559805,19.752564 36.7412415,19.739139 C36.644553,19.745934 36.5693955,19.8308175 36.503121,19.8818835 C36.4606635,19.8818835 36.453654,19.8564105 36.483954,19.812219 C36.507891,19.7773065 36.486489,19.7426055 36.4305495,19.725621 C36.3820725,19.710906 36.316986,19.7445105 36.295836,19.7951805 C36.2787,19.8362355 36.2506845,19.8299115 36.2233575,19.7788215 C36.2083515,19.7507685 36.2073165,19.7361375 36.2195475,19.7249985 C36.2287875,19.7165835 36.236343,19.7029485 36.236343,19.694694 C36.236343,19.6782495 36.152856,19.641429 36.1109085,19.639374 C36.0964185,19.638624 36.075297,19.626534 36.063969,19.612425 C36.046221,19.590318 36.0382665,19.5891795 36.0064665,19.604205 C35.94708,19.632249 35.916207,19.6620675 35.916207,19.6913805 C35.916207,19.7141325 35.908797,19.7173845 35.872182,19.710714 C35.815719,19.7389845 35.7683055,19.722189 35.7156045,19.7280225 C35.6695515,19.688061 35.61831,19.657344 35.5718445,19.6213125 C35.521674,19.6072875 35.507697,19.6087575 35.465616,19.6324425 C35.3874975,19.676418 35.37771,19.670091 35.3896155,19.5832995 C35.3983455,19.5196305 35.3959305,19.505424 35.3751555,19.4981595 C35.359308,19.4926245 35.3419125,19.5002295 35.327454,19.519038 C35.314929,19.535316 35.288997,19.548636 35.2698105,19.548636 C35.233533,19.548636 35.1961935,19.579077 35.179248,19.622466 C35.172288,19.6402845 35.157057,19.6464015 35.127387,19.6432935 C35.089956,19.6393785 35.0858985,19.6339785 35.0901645,19.5937635 L35.0949495,19.548636 L34.9720185,19.548636 C34.879143,19.548636 34.849086,19.553211 34.849086,19.567332 C34.849086,19.6025355 34.801935,19.6721445 34.772283,19.680717 C34.727133,19.693767 34.7130345,19.677912 34.7225055,19.624752 C34.7295555,19.5851865 34.7263455,19.576407 34.704798,19.576407 C34.5999165,19.5186765 34.5470565,19.566357 34.4624085,19.594707 C34.4513235,19.634931 34.392918,19.6597635 34.2999705,19.66377 C34.245711,19.66611 34.231713,19.66179 34.227099,19.64133 C34.223964,19.627395 34.232214,19.6050915 34.2454635,19.5917625 C34.2681795,19.568901 34.265019,19.5681165 34.1896335,19.5779025 C34.1456835,19.5836025 34.073067,19.5887325 34.0282635,19.5892875 C33.9614775,19.5901875 33.945432,19.5950775 33.9391965,19.6167885 C33.923544,19.6713105 33.8277,19.660731 33.8277,19.6044885 C33.8277,19.5833775 33.80283,19.5791385 33.6257085,19.5700575 C33.3440535,19.5556125 33.32337,19.5558075 33.3117285,19.5729675 C33.294309,19.5986415 33.1970115,19.5726675 33.1800015,19.5378315 C33.1606215,19.498119 33.1016295,19.496622 33.088083,19.5354915 C33.080193,19.558137 33.073758,19.5606705 33.0567465,19.5478065 C33.0400155,19.5351615 33.0332835,19.5365115 33.025908,19.5540165 C33.012693,19.585395 32.989248,19.5819555 32.989248,19.5486315 C32.989248,19.511103 32.964474,19.5133365 32.9534145,19.5518565 C32.9479995,19.5707355 32.9394495,19.577523 32.931573,19.569213 C32.919153,19.556103 32.8790415,19.470882 32.8614405,19.420182 C32.8568055,19.406817 32.843142,19.395882 32.831088,19.395882 C32.8160265,19.395882 32.806191,19.4186745 32.799636,19.468782 C32.794386,19.5088755 32.7826605,19.5808155 32.7735735,19.6286475 C32.7578265,19.7115405 32.7590985,19.719348 32.8007385,19.795275 C32.8247655,19.8390885 32.8498095,19.878564 32.85639,19.882998 C32.86995,19.9966185 32.9067435,20.099232 32.9509725,20.204553 C32.9647725,20.2483755 32.9876025,20.2901925 33.00171,20.2974795 C33.025356,20.3096895 33.0250935,20.3122545 32.99835,20.3302515 C33.00231,20.375721 33.00618,20.406972 33.01212,20.4650745 C32.999535,20.4745845 32.9892525,20.4913425 32.9892525,20.5023225 C32.9892525,20.5320495 33.084849,20.659473 33.107154,20.659473 C33.117774,20.659473 33.126453,20.671113 33.126453,20.6853345 C33.239418,20.8058535 33.279126,20.91282 33.3225885,21.0581355 C33.3190485,21.159207 33.338742,21.210156 33.4074975,21.277731 C33.4464105,21.325938 33.467355,21.3854925 33.495183,21.4404435 C33.51144,21.461394 33.5214225,21.4834245 33.517368,21.489402 C33.503823,21.5093685 33.570171,21.665559 33.6131955,21.714981 C33.681846,21.7938375 33.704337,21.8861235 33.664644,21.926076 C33.6384435,21.9524475 33.645996,22.0507215 33.674904,22.0594965 C33.7282215,22.178751 33.8160315,22.2823665 33.8913945,22.3857195 C33.932226,22.4084865 34.029762,22.5448605 34.0178115,22.562472 C34.0124265,22.570407 34.0188615,22.5920355 34.0321965,22.6105245 C34.051605,22.657737 34.0685745,22.705275 34.0869225,22.753065 C34.125573,22.8108045 34.1255535,22.848501 34.086867,22.870509 C34.0521075,22.8902805 34.045242,22.9505985 34.077747,22.9505985 C34.1005545,22.9505985 34.1326425,23.0189265 34.1325195,23.0672265 C34.1323695,23.1396885 34.1880375,23.234703 34.280718,23.320005 C34.379208,23.4106545 34.386012,23.423838 34.396257,23.543868 C34.4380185,23.629221 34.4473935,23.7212385 34.46868,23.803005 C34.4321385,23.9491545 34.431948,23.94438 34.475565,23.9756355 C34.5037515,23.9958285 34.519032,24.022401 34.524735,24.061128 C34.531815,24.10923 34.527225,24.1221975 34.4928675,24.151206 C34.461612,24.177591 34.4526735,24.198306 34.4524935,24.24477 C34.4521935,24.323547 34.4163555,24.415488 34.3858755,24.415686 C34.3727505,24.41577 34.350357,24.426456 34.3361205,24.439419 C34.31328,24.4602225 34.312578,24.4694685 34.3301355,24.5179485 C34.3253055,24.6024255 34.3687815,24.659766 34.391739,24.734055 C34.391739,24.7610325 34.382109,24.7709625 34.3498155,24.777255 C34.326759,24.78174 34.283883,24.79323 34.254537,24.80277 C34.2041475,24.8191545 34.2015015,24.8231535 34.2069405,24.8747085 C34.2046605,25.0056465 34.13736,25.040937 34.065264,25.1398575 C34.067514,25.1920665 34.077339,25.2647115 34.0870905,25.3012905 C34.1068755,25.3755105 34.0887705,25.4151855 34.0413555,25.4014815 C34.0066965,25.3914615 33.934401,25.4448105 33.934401,25.4804085 C33.8711025,25.5245145 33.83796,25.5965895 33.7970205,25.6582935 C33.7899105,25.6582935 33.7899255,25.6768275 33.797052,25.699479 C33.809262,25.7382615 33.817434,25.8105045 33.8139885,25.849221 C33.771033,25.865472 33.7256475,25.8933585 33.6815985,25.9153665 C33.6293625,25.9602405 33.6262665,25.9670775 33.6430245,26.000577 C33.6542745,26.023059 33.6573345,26.0607 33.6510495,26.098929 C33.6425745,26.1503865 33.6336555,26.1631455 33.598293,26.174373 C33.545955,26.190993 33.5351415,26.211843 33.5239605,26.3176815 C33.5152905,26.3997405 33.5144805,26.4009315 33.461823,26.4095955 C33.3739995,26.4240405 33.294132,26.461641 33.294132,26.488527 C33.294132,26.501997 33.282552,26.5280895 33.2683845,26.5465065 C33.2440815,26.57811 33.2400225,26.670627 33.2537445,26.880228 C33.1498065,26.975826 33.128793,27.09936 33.1036875,27.2278485 C33.1182675,27.2779335 33.047541,27.283344 33.014718,27.315786 C32.9789895,27.323946 32.9436315,27.375069 32.943354,27.41895 C32.943273,27.431955 32.9263125,27.4756455 32.9056665,27.516042 C32.87685,27.5724225 32.855631,27.594246 32.8143465,27.609957 C32.768376,27.655023 32.713311,27.653031 32.656209,27.677427 C32.601621,27.7038735 32.388612,27.7689075 32.356572,27.7689075 C32.32608,27.797697 32.288184,27.816177 32.252163,27.8410755 C32.205474,28.0108305 32.1484905,27.9013185 32.092659,27.9400485 C32.032698,27.9606765 31.9633515,27.919761 31.903332,27.8979015 C31.8624435,27.8418795 31.8592575,27.929571 31.846128,27.939006 C31.832403,27.967536 31.779264,27.948516 31.738071,27.954381 C31.592271,27.91779 31.621905,28.028481 31.554165,28.0627455 C31.560555,28.1044065 31.5245445,28.105671 31.4794335,28.0653705 C31.4550705,28.0436055 31.434948,28.014096 31.434714,27.9997965 C31.434414,27.978186 31.430394,27.9767355 31.41126,27.9912015 C31.398375,28.0009365 31.3496835,28.008279 31.3007355,28.007853 C31.239729,28.007253 31.204752,28.014078 31.1851905,28.0301445 C31.1590215,28.0516425 31.155834,28.051572 31.1377755,28.0290945 C31.121616,28.008966 31.093074,28.004979 30.9651105,28.004979 C30.894519,28.003119 30.8230425,28.017339 30.7657275,28.0223355 C30.718275,27.996816 30.551505,27.999384 30.5403735,28.0258005 C30.5258985,28.06014 30.4631745,28.0495215 30.386262,27.999711 C30.3032715,27.945963 30.253812,27.928974 30.2262945,27.9447615 C30.19941,27.9601845 30.0284835,27.9499215 30.003675,27.9313815 C29.9879985,27.9196815 29.976693,27.9239115 29.9555835,27.9494025 C29.928642,27.9819345 29.923062,27.9826725 29.72073,27.980409 C29.606739,27.979059 29.513475,27.982659 29.513475,27.988254 C29.4210045,28.0406925 29.3085885,28.063617 29.204979,28.0892925 C29.1064005,28.0886925 29.0262105,28.0977525 28.926978,28.111137 C28.795542,28.175334 28.771449,28.1797785 28.621995,28.123707 C28.5041085,28.1398515 28.3977645,28.117587 28.2791535,28.1021715 C28.1897955,28.060386 28.050795,28.1089215 28.0088895,28.1155665 C27.776661,28.0069785 27.5575185,28.089108 27.358089,28.1588025 C27.323565,28.2120375 27.27546,28.23639 27.263043,28.206918 C27.203589,28.1358495 27.205242,28.258389 27.1818495,28.279218 C27.1708245,28.3307685 27.159216,28.377126 27.156051,28.382235 C27.150186,28.391715 27.0590985,28.3554075 27.0590985,28.3435965 C27.0590985,28.3400265 27.0721035,28.320177 27.0880125,28.2994845 C27.103914,28.278792 27.120894,28.241553 27.125742,28.2167325 C27.133992,28.1744895 27.131787,28.171605 27.0910725,28.171605 C26.9710605,28.216209 26.8485255,28.256238 26.7216495,28.2878325 C26.6688195,28.2989775 26.63838,28.2686055 26.6620305,28.228353 C26.7943515,28.145553 26.951556,28.0758165 27.097944,27.9908715 C27.15036,27.9751155 27.180708,27.927084 27.1587225,27.894681 C27.1443525,27.873513 27.0850485,27.8766465 27.050577,27.900396 C26.8438455,27.9249765 26.736435,27.9308115 26.5423965,28.083765 C26.477202,28.0908 26.46456,28.088535 26.46456,28.069815 C26.46456,28.05753 26.484219,28.034229 26.5082475,28.0180485 C26.5743885,27.9336375 26.6471745,27.87048 26.7306585,27.8036385 C26.855835,27.720717 26.938875,27.600033 27.043854,27.4920315 C27.043854,27.460773 27.0198945,27.4425825 27.0058965,27.463215 C27.0006315,27.470985 26.9838585,27.47733 26.9686275,27.47733 C26.8491915,27.4943355 26.761749,27.5414145 26.6639175,27.6061455 C26.6387595,27.6148005 26.605623,27.643731 26.587803,27.672612 C26.552031,27.730584 26.4739635,27.7570335 26.443401,27.7215345 C26.4911295,27.631503 26.5455045,27.55587 26.604624,27.470388 C26.7039915,27.3478425 26.7879165,27.2128455 26.880693,27.089133 C27.0564495,26.9444595 27.170691,26.7668445 27.326241,26.61492 C27.333681,26.5840365 27.348573,26.571768 27.3934485,26.5595205 C27.4393005,26.5470105 27.4577325,26.5313385 27.4835655,26.4829065 C27.50883,26.435538 27.524352,26.422023 27.5534835,26.422023 C27.632586,26.3901555 27.703029,26.3259735 27.775593,26.275824 C27.8133225,26.249013 27.880209,26.2111185 27.924228,26.1916185 C27.9931965,26.1338595 28.0613235,26.101698 28.143024,26.06181 C28.1748435,26.045691 28.3444155,26.0093775 28.42803,26.000775 C28.4688165,25.996575 28.5234885,25.9754835 28.5728535,25.9448955 C28.6236585,25.9122 28.6839435,25.891194 28.736001,25.86603 C28.736001,25.847256 28.8309255,25.824411 28.934181,25.8183345 C29.084346,25.80057 29.2390935,25.8061245 29.347656,25.8101445 C29.4561885,25.8164145 29.5490955,25.7946735 29.662971,25.7902275 L29.856477,25.7902275 C29.968272,25.6135335 29.9837835,25.446897 29.931843,25.255632 C29.918283,25.255632 29.8947465,25.228095 29.876922,25.1913915 C29.8441635,25.123938 29.7182685,24.9399285 29.6643675,24.8807205 C29.627358,24.8192085 29.5573245,24.81144 29.497809,24.785274 C29.374179,24.7221435 29.2701855,24.640239 29.16666,24.546627 C29.082888,24.5022735 29.17737,24.4869165 29.17809,24.482898 C29.2949265,24.494538 29.101782,24.4147875 29.0684865,24.399816 C28.922112,24.2270325 28.7571525,24.125133 28.6369065,23.94393 C28.62123,23.845332 28.5296775,23.805549 28.456692,23.7509055 C28.415925,23.7415905 28.339551,23.681667 28.313157,23.6382945 C28.197783,23.57415 28.095552,23.491197 27.9954045,23.4144255 C27.951495,23.361933 27.87762,23.3670195 27.8204145,23.3519655 C27.7772865,23.332959 27.7385685,23.2990695 27.7024125,23.2757025 C27.6998925,23.2611075 27.684093,23.2143675 27.6672915,23.171844 C27.629472,23.063967 27.5410815,23.062635 27.450153,23.0281005 C27.420297,23.0385405 27.37923,22.9968585 27.37923,22.956126 C27.36813,22.895586 27.345996,22.8366465 27.327033,22.777896 C27.316113,22.724799 27.2283885,22.6312545 27.189504,22.6312485 L27.0816825,22.4576805 L26.9767905,22.4576805 C26.836746,22.436094 26.804385,22.3698945 26.738499,22.25634 C26.724534,22.2372465 26.697027,22.1988915 26.677365,22.1711085 C26.5909845,22.1131725 26.499861,22.0694655 26.4104055,21.99231 C26.371584,21.98241 26.3378265,21.9674715 26.335386,21.959112 C26.3084955,21.867003 26.28681,21.8229285 26.256603,21.7990065 C26.236824,21.783342 26.220642,21.764721 26.220642,21.757626 C26.220642,21.7323255 26.115996,21.7114275 26.067078,21.72696 C25.923765,21.759441 25.9661175,21.6704745 25.9071615,21.6112635 C25.887798,21.5375715 25.882647,21.3936765 25.880319,21.3511485 C25.843074,21.3430185 25.806021,21.3362835 25.768422,21.3287625 C25.725528,21.3329175 25.725201,21.3323475 25.726179,21.256575 C25.726779,21.2145705 25.730154,21.158334 25.733799,21.131604 C25.7163345,21.063573 25.620438,21.0360975 25.557855,20.986581 C25.490133,20.977326 25.460538,20.9601165 25.486872,20.945292 C25.494462,20.941017 25.487922,20.9018235 25.472412,20.8575465 C25.4305935,20.666565 25.2730845,20.6108895 25.119225,20.5233975 C25.110825,20.5436025 25.0858965,20.5604325 25.0693155,20.5788585 C24.961026,20.691489 24.861789,20.802735 24.7343775,20.8895085 C24.6669975,20.9010285 24.635211,20.954202 24.635211,21.0554175 L24.635211,21.118977 C24.5778705,21.067464 24.5365605,21.1480425 24.5144655,21.1545525 C24.4998255,21.237303 24.4604205,21.310065 24.423819,21.3856425 C24.412224,21.4328205 24.396255,21.464859 24.384324,21.464859 C24.373299,21.464859 24.3452775,21.473844 24.3220365,21.4848285 C24.2720715,21.50844 24.240369,21.5764665 24.2243565,21.694422 C24.2079855,21.815025 24.1923675,21.835749 24.1216125,21.8307585 C24.040596,21.8250435 24.024336,21.8390685 24.0152625,21.9224685 C23.970942,22.1136285 23.8144845,22.2624615 23.6927145,22.386009 C23.6950395,22.432653 23.724198,22.470672 23.7402795,22.513917 C23.7431745,22.549821 23.7377595,22.553811 23.66718,22.567725 C23.6145285,22.59369 23.545227,22.638741 23.492499,22.68486 C23.4360105,22.719417 23.426958,22.731984 23.422905,22.7814675 C23.416665,22.857681 23.41176,22.8626025 23.3310375,22.8736275 C23.249136,22.8592275 23.277855,22.935336 23.243469,22.975233 C23.2185645,23.0002995 23.2113825,23.001006 23.1564705,22.983768 C23.0452575,22.9488675 23.025666,22.987098 23.079576,23.133822 C23.0955555,23.1773085 23.1133155,23.2413555 23.119044,23.2761495 C23.130939,23.348439 23.120589,23.3533395 23.029296,23.3185965 C22.9777185,23.298966 22.97367,23.299377 22.95813,23.3258265 C22.94487,23.3546385 22.95237,23.3845425 22.94931,23.415837 C22.940175,23.448987 22.9337115,23.451546 22.8688095,23.447718 C22.7384475,23.433768 22.7332155,23.4866235 22.628604,23.5728495 C22.618029,23.5782345 22.581963,23.6212935 22.548444,23.6685315 C22.4805375,23.76423 22.438656,23.781087 22.3089975,23.764899 C22.2391935,23.7204405 22.2636855,23.8903275 22.2634755,23.9494755 C22.248201,24.0072495 22.2349125,24.055974 22.2339435,24.05775 C22.2330435,24.05952 22.211547,24.05388 22.186329,24.04521 C22.034679,24.04641 21.961842,24.149739 21.8627625,24.25011 C21.8643525,24.302274 21.8149125,24.4677015 21.7933875,24.48228 C21.7169355,24.48966 21.6370275,24.489075 21.560187,24.489465 C21.551037,24.494625 21.539076,24.530094 21.5336025,24.5682795 C21.5171145,24.6833445 21.5111205,24.698706 21.476028,24.7158105 C21.3836385,24.7022205 21.3668475,24.771963 21.3107415,24.804708 C21.279498,24.868716 21.2675535,24.880446 21.2334915,24.8805645 C21.191007,24.8807145 21.174693,24.902256 21.174693,24.958212 C21.169053,24.9910515 21.136602,25.000236 21.114501,25.0246185 C21.102186,25.0541055 21.088287,25.058442 20.9778585,25.0672155 C20.909883,25.0726155 20.8497255,25.084455 20.843304,25.093692 C20.774643,25.101687 20.7747645,25.173624 20.7478455,25.205019 C20.7478455,25.275969 20.7450855,25.278573 20.5992105,25.345155 C20.538423,25.3729005 20.4886875,25.403766 20.4886875,25.4137425 C20.4768225,25.4536125 20.4417345,25.4812035 20.418354,25.5147975 C20.404314,25.5358725 20.38413,25.5397815 20.3014965,25.5374355 C20.192274,25.5343305 20.1654105,25.5482355 20.172183,25.6043775 C20.1147165,25.7605815 20.039688,25.751496 19.9364385,25.8008295 C19.885788,25.7943795 19.8779895,25.7975445 19.864404,25.830087 C19.856019,25.85016 19.838709,25.8665835 19.8259245,25.8665835 C19.79799,25.8994635 19.79895,25.973535 19.79082,26.021799 C19.780665,26.031054 19.7383005,26.039325 19.696683,26.0401845 C19.6115085,26.0290545 19.5790695,26.0951535 19.5277905,26.130411 C19.4775435,26.130411 19.4022555,26.165532 19.3491015,26.213763 C19.3077,26.2513335 19.2999015,26.268306 19.3019025,26.3164845 C19.3170825,26.400816 19.24632,26.430639 19.2081435,26.4849825 C19.2081435,26.515146 19.137288,26.510211 19.1014305,26.4775575 C19.0619265,26.441574 19.025208,26.441907 19.025208,26.4783075 C19.008972,26.549325 18.9921795,26.6247015 18.9574995,26.672016 C18.9369795,26.781987 18.8720715,26.8192095 18.810459,26.8932045 C18.7415865,26.955654 18.7005,26.9774985 18.651924,26.9774985 C18.5477115,27.0116205 18.4743495,27.0988575 18.402789,27.1692885 C18.3293355,27.2486595 18.2531655,27.343848 18.186756,27.42102 C18.186756,27.458139 18.173481,27.4626345 18.1000485,27.4504035 C18.0152145,27.4362735 17.9987445,27.4484985 18,27.5247 C18.000909,27.5785395 17.996529,27.5884665 17.9719545,27.5884665 C17.934468,27.5637585 17.8905735,27.570567 17.8456935,27.5606955 L17.7485445,27.5606955 L17.7410595,27.626652 C17.7313695,27.7119915 17.64447,27.8402145 17.599845,27.835017 C17.585385,27.7770645 17.547414,27.727176 17.529636,27.6701535 C17.475522,27.7611015 17.4216,27.86994 17.378799,27.9513675 C17.2969035,27.9958395 17.315778,28.07325 17.303706,28.1552265 C17.302656,28.212216 17.300511,28.2149475 17.260653,28.21077 C17.2136805,28.1953725 17.2001625,28.099986 17.18622,28.063296 C17.1506595,28.058676 17.0767545,28.129716 17.036262,28.207443 C17.0139315,28.2503055 17.012133,28.2509235 16.952208,28.2363555 C16.901079,28.21587 16.8720465,28.1882595 16.831896,28.1641695 C16.775349,28.233384 16.756017,28.3549785 16.7232825,28.4465595 C16.7232825,28.4828985 16.6796985,28.497108 16.6481085,28.4710665 C16.602477,28.4334525 16.5164385,28.4072775 16.496907,28.4250675 C16.481712,28.4517765 16.460166,28.4723685 16.441257,28.496712 C16.4002845,28.534032 16.393587,28.577406 16.4192895,28.6389855 C16.4326995,28.6710975 16.4307495,28.680789 16.4078595,28.696092 C16.383738,28.712214 16.376082,28.709742 16.3467705,28.676349 C16.2451395,28.555458 16.3009935,28.534737 16.165107,28.640301 C16.169472,28.653666 16.177797,28.6827495 16.183623,28.70493 C16.193748,28.743522 16.192308,28.744911 16.150047,28.737147 C16.1257545,28.732677 16.094922,28.725162 16.0815285,28.720443 C16.0496595,28.709208 15.9275025,28.801206 15.9093375,28.850127 C15.9018525,28.870281 15.8827155,28.9037055 15.8668095,28.9244025 C15.841983,28.956708 15.8324415,28.9601475 15.7993905,28.9487025 C15.7186785,28.9207515 15.6844305,28.9402725 15.6726045,29.0209755 L15.6637845,29.081169 L15.4808505,29.081169 C15.3027525,29.081169 15.296403,29.082219 15.240549,29.121144 C15.1833675,29.160987 15.171273,29.182698 15.162255,29.261682 C15.1116375,29.3098065 14.9879925,29.368407 14.939193,29.396073 C14.938743,29.446461 14.909691,29.472198 14.817714,29.503962 C14.752866,29.5872915 14.674299,29.595747 14.602266,29.643537 C14.5444125,29.648862 14.4653115,29.728233 14.441589,29.7493485 C14.319381,29.6750865 14.1461535,29.678145 14.0447955,29.6755545 L13.468569,29.6643645 C13.3869495,29.6492865 13.305528,29.6758395 13.229997,29.6855865 C13.0438935,29.730189 12.86781,29.706837 12.6766035,29.754621 C12.5425605,29.637186 12.4391355,29.661414 12.2735085,29.6956065 C12.2267235,29.7782655 12.1850505,29.8117545 12.141396,29.801775 C12.037917,29.834034 11.952783,29.81436 11.876859,29.8250205 C11.790066,29.759133 11.747367,29.8397055 11.677332,29.9011185 C11.621406,29.945673 11.5206825,29.953851 11.446884,29.9640585 C11.3961765,29.996946 11.2960065,30.010047 11.23524,29.991735 L11.2352145,29.9917125 Z" id="path2180"></path>
                </g>
            </g>
        </g>
    </g>
</svg>