<?xml version="1.0" encoding="UTF-8"?>
<svg width="721px" height="664px" viewBox="0 0 721 664" version="1.1" xmlns="http://www.w3.org/2000/svg" xmlns:xlink="http://www.w3.org/1999/xlink">
    <!-- Generator: Sketch 62 (91390) - https://sketch.com -->
    <title>outline</title>
    <desc>Created with Sketch.</desc>
    <defs>
        <linearGradient x1="56.372825%" y1="37.6737682%" x2="0%" y2="62.3262318%" id="linearGradient-1">
            <stop stop-color="#5B1074" offset="0%"></stop>
            <stop stop-color="#ED264D" offset="100%"></stop>
        </linearGradient>
    </defs>
    <g id="FME-Version-1" stroke="none" stroke-width="1" fill="none" fill-rule="evenodd">
        <g id="FME-Home-Desktop" transform="translate(-719.000000, -4262.000000)" stroke="url(#linearGradient-1)" stroke-width="2">
            <g id="outline" transform="translate(720.000000, 4263.000000)">
                <path d="M856.08,544 C875.76,544 891.668,550.56 904.132,561.384 L904.132,561.384 L882.648,587.296 C875.104,580.9 866.74,577.292 857.228,577.292 C842.304,577.292 831.48,588.772 831.48,604.352 L831.48,604.352 L831.48,604.68 C831.48,620.916 842.796,632.068 858.868,632.068 C865.428,632.068 869.036,631.084 871.988,629.444 L871.988,629.444 L871.988,617.964 L852.308,617.964 L852.308,593.364 L907.904,593.364 L907.904,646.5 C895.44,656.668 878.056,663.72 857.228,663.72 C821.476,663.72 792.776,639.776 792.776,604.188 L792.776,604.188 L792.776,603.86 C792.776,569.584 819.836,544 856.08,544 Z M64.288,546.46 C80.196,546.46 90.2,550.068 96.924,556.792 C101.024,560.892 103.976,566.796 103.976,574.668 L103.976,574.668 L103.976,574.996 C103.976,588.608 95.776,596.972 83.476,601.236 C98.236,605.5 107.748,613.372 107.748,629.116 L107.748,629.116 L107.748,629.444 C107.748,647.812 92.66,661.26 63.632,661.26 L63.632,661.26 L-5.86197757e-14,661.26 L-5.86197757e-14,546.46 Z M703.396,546.46 L744.232,597.136 L744.232,546.46 L782.28,546.46 L782.28,661.26 L748.168,661.26 L705.528,608.288 L705.528,661.26 L667.48,661.26 L667.48,546.46 L703.396,546.46 Z M654.032,546.46 L654.032,661.26 L615.656,661.26 L615.656,546.46 L654.032,546.46 Z M536.444,546.46 C582.036,546.46 604.832,568.928 604.832,602.876 L604.832,602.876 L604.832,603.204 C604.832,637.152 581.544,661.26 535.132,661.26 L535.132,661.26 L492.492,661.26 L492.492,546.46 Z M172.2,546.46 C192.536,546.46 205.492,551.544 213.528,559.58 C220.416,566.468 224.024,574.996 224.024,586.804 L224.024,586.804 L224.024,587.132 C224.024,603.86 215.332,615.504 201.392,622.228 L201.392,622.228 L226.19,658.436 L225.008,661.26 L184.336,661.26 L162.688,628.46 L154.488,628.46 L154.488,661.26 L116.112,661.26 L116.112,546.46 Z M400.488,546.46 L441.324,597.136 L441.324,546.46 L479.372,546.46 L479.372,661.26 L445.26,661.26 L402.62,608.288 L402.62,661.26 L364.572,661.26 L364.572,546.46 L400.488,546.46 Z M311.436,545.64 L359.816,661.26 L318.16,661.26 L312.092,645.844 L271.912,645.844 L266.008,661.26 L228.124,661.26 L226.19,658.436 L273.388,545.64 L311.436,545.64 Z M56.744,615.176 L37.392,615.176 L37.392,632.232 L56.58,632.232 C64.944,632.232 69.208,628.788 69.208,623.868 L69.208,623.868 L69.208,623.54 C69.208,618.62 65.108,615.176 56.744,615.176 L56.744,615.176 Z M537.264,579.916 L530.868,579.916 L530.868,627.804 L537.264,627.804 C554.812,627.804 566.128,620.588 566.128,604.024 L566.128,604.024 L566.128,603.696 C566.128,587.132 554.812,579.916 537.264,579.916 L537.264,579.916 Z M292.084,590.74 L281.588,618.62 L302.58,618.62 L292.084,590.74 Z M171.216,578.604 L154.488,578.604 L154.488,601.072 L171.052,601.072 C180.236,601.072 185.812,596.972 185.812,589.92 L185.812,589.92 L185.812,589.592 C185.812,582.212 180.072,578.604 171.216,578.604 L171.216,578.604 Z M53.956,575.488 L37.392,575.488 L37.392,591.56 L54.12,591.56 C62.32,591.56 66.256,588.772 66.256,583.688 L66.256,583.688 L66.256,583.36 C66.256,578.276 62.156,575.488 53.956,575.488 L53.956,575.488 Z M296.348,408 C331.772,408 358.832,434.24 358.832,467.532 L358.832,467.532 L358.832,467.86 C358.832,501.152 331.444,527.72 296.02,527.72 C260.596,527.72 233.536,501.48 233.536,468.188 L233.536,468.188 L233.536,467.86 C233.536,434.568 260.924,408 296.348,408 Z M539.724,408 C575.148,408 602.208,434.24 602.208,467.532 L602.208,467.532 L602.208,467.86 C602.208,501.152 574.82,527.72 539.396,527.72 C503.972,527.72 476.912,501.48 476.912,468.188 L476.912,468.188 L476.912,467.86 C476.912,434.568 504.3,408 539.724,408 Z M673.384,408 C693.064,408 708.972,414.56 721.436,425.384 L721.436,425.384 L699.952,451.296 C692.408,444.9 684.044,441.292 674.532,441.292 C659.608,441.292 648.784,452.772 648.784,468.352 L648.784,468.352 L648.784,468.68 C648.784,484.916 660.1,496.068 676.172,496.068 C682.732,496.068 686.34,495.084 689.292,493.444 L689.292,493.444 L689.292,481.964 L669.612,481.964 L669.612,457.364 L725.208,457.364 L725.208,510.5 C712.744,520.668 695.36,527.72 674.532,527.72 C638.78,527.72 610.08,503.776 610.08,468.188 L610.08,468.188 L610.08,467.86 C610.08,433.584 637.14,408 673.384,408 Z M470.844,410.46 L470.844,442.932 L437.06,442.932 L437.06,525.26 L398.684,525.26 L398.684,442.932 L364.9,442.932 L364.9,410.46 L470.844,410.46 Z M792.448,410.46 C812.784,410.46 825.74,415.544 833.776,423.58 C840.664,430.468 844.272,438.996 844.272,450.804 L844.272,450.804 L844.272,451.132 C844.272,467.86 835.58,479.504 821.64,486.228 L821.64,486.228 L846.438,522.436 L845.256,525.26 L804.584,525.26 L782.936,492.46 L774.736,492.46 L774.736,525.26 L736.36,525.26 L736.36,410.46 Z M931.684,409.64 L980.064,525.26 L938.408,525.26 L932.34,509.844 L892.16,509.844 L886.256,525.26 L848.372,525.26 L846.438,522.436 L893.636,409.64 L931.684,409.64 Z M1134.388,410.46 L1134.388,450.968 L1169.484,450.968 L1169.484,410.46 L1207.86,410.46 L1207.86,525.26 L1169.484,525.26 L1169.484,484.096 L1134.388,484.096 L1134.388,525.26 L1096.012,525.26 L1096.012,410.46 L1134.388,410.46 Z M51.66,410.46 C82.164,410.46 102.992,424.072 102.992,451.296 L102.992,451.296 L102.992,451.624 C102.992,479.34 81.836,494.1 50.84,494.1 L50.84,494.1 L38.376,494.1 L38.376,525.26 L-5.86197757e-14,525.26 L-5.86197757e-14,410.46 Z M1036.48,410.46 C1066.984,410.46 1087.812,424.072 1087.812,451.296 L1087.812,451.296 L1087.812,451.624 C1087.812,479.34 1066.656,494.1 1035.66,494.1 L1035.66,494.1 L1023.196,494.1 L1023.196,525.26 L984.82,525.26 L984.82,410.46 Z M1254.764,410.46 L1274.444,448.18 L1294.288,410.46 L1336.764,410.46 L1293.468,484.096 L1293.468,525.26 L1255.092,525.26 L1255.092,484.588 L1211.796,410.46 L1254.764,410.46 Z M149.568,410.46 L149.568,450.968 L184.664,450.968 L184.664,410.46 L223.04,410.46 L223.04,525.26 L184.664,525.26 L184.664,484.096 L149.568,484.096 L149.568,525.26 L111.192,525.26 L111.192,410.46 L149.568,410.46 Z M539.396,441.948 C524.8,441.948 515.616,454.084 515.616,467.532 L515.616,467.532 L515.616,467.86 C515.616,481.472 524.964,493.772 539.724,493.772 C554.32,493.772 563.504,481.636 563.504,468.188 L563.504,468.188 L563.504,467.86 C563.504,454.248 554.156,441.948 539.396,441.948 Z M296.02,441.948 C281.424,441.948 272.24,454.084 272.24,467.532 L272.24,467.532 L272.24,467.86 C272.24,481.472 281.588,493.772 296.348,493.772 C310.944,493.772 320.128,481.636 320.128,468.188 L320.128,468.188 L320.128,467.86 C320.128,454.248 310.78,441.948 296.02,441.948 Z M912.332,454.74 L901.836,482.62 L922.828,482.62 L912.332,454.74 Z M48.872,441.128 L38.376,441.128 L38.376,466.712 L48.708,466.712 C58.548,466.712 65.108,462.284 65.108,454.084 L65.108,454.084 L65.108,453.756 C65.108,445.392 59.04,441.128 48.872,441.128 L48.872,441.128 Z M1033.692,441.128 L1023.196,441.128 L1023.196,466.712 L1033.528,466.712 C1043.368,466.712 1049.928,462.284 1049.928,454.084 L1049.928,454.084 L1049.928,453.756 C1049.928,445.392 1043.86,441.128 1033.692,441.128 L1033.692,441.128 Z M791.464,442.604 L774.736,442.604 L774.736,465.072 L791.3,465.072 C800.484,465.072 806.06,460.972 806.06,453.92 L806.06,453.92 L806.06,453.592 C806.06,446.212 800.32,442.604 791.464,442.604 L791.464,442.604 Z M628.12,272 C663.544,272 690.604,298.24 690.604,331.532 L690.604,331.532 L690.604,331.86 C690.604,365.152 663.216,391.72 627.792,391.72 C592.368,391.72 565.308,365.48 565.308,332.188 L565.308,332.188 L565.308,331.86 C565.308,298.568 592.696,272 628.12,272 Z M266.5,274.46 L288.804,338.912 L311.108,274.46 L353.42,274.46 L306.844,390.08 L270.108,390.08 L223.532,274.46 L266.5,274.46 Z M1293.14,274.46 L1293.14,306.932 L1259.356,306.932 L1259.356,389.26 L1220.98,389.26 L1220.98,306.932 L1187.196,306.932 L1187.196,274.46 L1293.14,274.46 Z M43.952,274.46 C89.544,274.46 112.34,296.928 112.34,330.876 L112.34,330.876 L112.34,331.204 C112.34,365.152 89.052,389.26 42.64,389.26 L42.64,389.26 L-5.86197757e-14,389.26 L-5.86197757e-14,274.46 Z M220.744,274.46 L220.744,305.948 L160.556,305.948 L160.556,317.592 L216.644,317.592 L216.644,345.308 L160.556,345.308 L160.556,357.772 L221.564,357.772 L221.564,389.26 L122.836,389.26 L122.836,274.46 L220.744,274.46 Z M456.084,274.46 L456.084,305.948 L395.896,305.948 L395.896,317.592 L451.984,317.592 L451.984,345.308 L395.896,345.308 L395.896,357.772 L456.904,357.772 L456.904,389.26 L358.176,389.26 L358.176,274.46 L456.084,274.46 Z M505.612,274.46 L505.612,356.46 L559.568,356.46 L559.568,389.26 L467.236,389.26 L467.236,274.46 L505.612,274.46 Z M752.76,274.46 C783.264,274.46 804.092,288.072 804.092,315.296 L804.092,315.296 L804.092,315.624 C804.092,343.34 782.936,358.1 751.94,358.1 L751.94,358.1 L739.476,358.1 L739.476,389.26 L701.1,389.26 L701.1,274.46 Z M1099.62,274.46 L1140.456,325.136 L1140.456,274.46 L1178.504,274.46 L1178.504,389.26 L1144.392,389.26 L1101.752,336.288 L1101.752,389.26 L1063.704,389.26 L1063.704,274.46 L1099.62,274.46 Z M852.308,274.46 L876.908,314.804 L901.508,274.46 L941.524,274.46 L941.524,389.26 L903.312,389.26 L903.312,332.352 L876.908,373.188 L876.252,373.188 L849.848,332.352 L849.848,389.26 L812.292,389.26 L812.292,274.46 L852.308,274.46 Z M1052.552,274.46 L1052.552,305.948 L992.364,305.948 L992.364,317.592 L1048.452,317.592 L1048.452,345.308 L992.364,345.308 L992.364,357.772 L1053.372,357.772 L1053.372,389.26 L954.644,389.26 L954.644,274.46 L1052.552,274.46 Z M627.792,305.948 C613.196,305.948 604.012,318.084 604.012,331.532 L604.012,331.532 L604.012,331.86 C604.012,345.472 613.36,357.772 628.12,357.772 C642.716,357.772 651.9,345.636 651.9,332.188 L651.9,332.188 L651.9,331.86 C651.9,318.248 642.552,305.948 627.792,305.948 Z M44.772,307.916 L38.376,307.916 L38.376,355.804 L44.772,355.804 C62.32,355.804 73.636,348.588 73.636,332.024 L73.636,332.024 L73.636,331.696 C73.636,315.132 62.32,307.916 44.772,307.916 L44.772,307.916 Z M749.972,305.128 L739.476,305.128 L739.476,330.712 L749.808,330.712 C759.648,330.712 766.208,326.284 766.208,318.084 L766.208,318.084 L766.208,317.756 C766.208,309.392 760.14,305.128 749.972,305.128 L749.972,305.128 Z M970.552,136 C990.232,136 1006.14,142.56 1018.604,153.384 L1018.604,153.384 L997.12,179.296 C989.576,172.9 981.212,169.292 971.7,169.292 C956.776,169.292 945.952,180.772 945.952,196.352 L945.952,196.352 L945.952,196.68 C945.952,212.916 957.268,224.068 973.34,224.068 C979.9,224.068 983.508,223.084 986.46,221.444 L986.46,221.444 L986.46,209.964 L966.78,209.964 L966.78,185.364 L1022.376,185.364 L1022.376,238.5 C1009.912,248.668 992.528,255.72 971.7,255.72 C935.948,255.72 907.248,231.776 907.248,196.188 L907.248,196.188 L907.248,195.86 C907.248,161.584 934.308,136 970.552,136 Z M329.64,138.46 C349.976,138.46 362.932,143.544 370.968,151.58 C377.856,158.468 381.464,166.996 381.464,178.804 L381.464,178.804 L381.464,179.132 C381.464,195.86 372.772,207.504 358.832,214.228 L358.832,214.228 L385.564,253.26 L341.776,253.26 L320.128,220.46 L311.928,220.46 L311.928,253.26 L273.552,253.26 L273.552,138.46 Z M40.016,138.46 L64.616,178.804 L89.216,138.46 L129.232,138.46 L129.232,253.26 L91.02,253.26 L91.02,196.352 L64.616,237.188 L63.96,237.188 L37.556,196.352 L37.556,253.26 L-5.86197757e-14,253.26 L-5.86197757e-14,138.46 L40.016,138.46 Z M817.868,138.46 L858.704,189.136 L858.704,138.46 L896.752,138.46 L896.752,253.26 L862.64,253.26 L820,200.288 L820,253.26 L781.952,253.26 L781.952,138.46 L817.868,138.46 Z M768.504,138.46 L768.504,253.26 L730.128,253.26 L730.128,138.46 L768.504,138.46 Z M721.108,138.46 L721.108,170.932 L687.324,170.932 L687.324,253.26 L648.948,253.26 L648.948,170.932 L615.164,170.932 L615.164,138.46 L721.108,138.46 Z M608.44,138.46 L608.44,169.948 L548.252,169.948 L548.252,181.592 L604.34,181.592 L604.34,209.308 L548.252,209.308 L548.252,221.772 L609.26,221.772 L609.26,253.26 L510.532,253.26 L510.532,138.46 L608.44,138.46 Z M429.188,138.46 L429.188,181.428 L461.824,138.46 L506.432,138.46 L466.416,188.316 L507.252,253.26 L461.496,253.26 L439.028,216.852 L429.188,228.824 L429.188,253.26 L390.812,253.26 L390.812,138.46 L429.188,138.46 Z M220.416,137.64 L268.796,253.26 L227.14,253.26 L221.072,237.844 L180.892,237.844 L174.988,253.26 L133.988,253.26 L182.368,137.64 L220.416,137.64 Z M201.064,182.74 L190.568,210.62 L211.56,210.62 L201.064,182.74 Z M328.656,170.604 L311.928,170.604 L311.928,193.072 L328.492,193.072 C337.676,193.072 343.252,188.972 343.252,181.92 L343.252,181.92 L343.252,181.592 C343.252,174.212 337.512,170.604 328.656,170.604 L328.656,170.604 Z M930.208,-3.41060513e-13 C955.464,-3.41060513e-13 972.52,12.3 982.196,29.848 L982.196,29.848 L950.544,48.38 C946.28,40.18 940.212,34.44 929.716,34.44 C916.76,34.44 908.232,45.756 908.232,59.532 L908.232,59.532 L908.232,59.86 C908.232,74.784 917.088,85.28 929.716,85.28 C940.54,85.28 946.608,79.376 951.364,70.848 L951.364,70.848 L983.016,88.724 C973.34,105.78 957.268,119.72 928.732,119.72 C896.916,119.72 869.2,95.776 869.2,60.188 L869.2,60.188 L869.2,59.86 C869.2,25.584 895.932,-3.41060513e-13 930.208,-3.41060513e-13 Z M287.82,-3.41060513e-13 C323.244,-3.41060513e-13 350.304,26.24 350.304,59.532 L350.304,59.532 L350.304,59.86 C350.304,93.152 322.916,119.72 287.492,119.72 C252.068,119.72 225.008,93.48 225.008,60.188 L225.008,60.188 L225.008,59.86 C225.008,26.568 252.396,-3.41060513e-13 287.82,-3.41060513e-13 Z M167.444,-3.41060513e-13 C192.7,-3.41060513e-13 209.756,12.3 219.432,29.848 L219.432,29.848 L187.78,48.38 C183.516,40.18 177.448,34.44 166.952,34.44 C153.996,34.44 145.468,45.756 145.468,59.532 L145.468,59.532 L145.468,59.86 C145.468,74.784 154.324,85.28 166.952,85.28 C177.776,85.28 183.844,79.376 188.6,70.848 L188.6,70.848 L220.252,88.724 C210.576,105.78 194.504,119.72 165.968,119.72 C134.152,119.72 106.436,95.776 106.436,60.188 L106.436,60.188 L106.436,59.86 C106.436,25.584 133.168,-3.41060513e-13 167.444,-3.41060513e-13 Z M97.908,2.46 L97.908,33.948 L37.72,33.948 L37.72,45.592 L93.808,45.592 L93.808,73.308 L37.72,73.308 L37.72,85.772 L98.728,85.772 L98.728,117.26 L-5.86197757e-14,117.26 L-5.86197757e-14,2.46 L97.908,2.46 Z M400.816,2.46 L425.416,42.804 L450.016,2.46 L490.032,2.46 L490.032,117.26 L451.82,117.26 L451.82,60.352 L425.416,101.188 L424.76,101.188 L398.356,60.352 L398.356,117.26 L360.8,117.26 L360.8,2.46 L400.816,2.46 Z M1088.304,2.46 L1088.304,33.948 L1028.116,33.948 L1028.116,45.592 L1084.204,45.592 L1084.204,73.308 L1028.116,73.308 L1028.116,85.772 L1089.124,85.772 L1089.124,117.26 L990.396,117.26 L990.396,2.46 L1088.304,2.46 Z M810.652,2.46 C830.988,2.46 843.944,7.544 851.98,15.58 C858.868,22.468 862.476,30.996 862.476,42.804 L862.476,42.804 L862.476,43.132 C862.476,59.86 853.784,71.504 839.844,78.228 L839.844,78.228 L866.576,117.26 L822.788,117.26 L801.14,84.46 L792.94,84.46 L792.94,117.26 L754.564,117.26 L754.564,2.46 Z M743.412,2.46 L743.412,33.948 L683.224,33.948 L683.224,45.592 L739.312,45.592 L739.312,73.308 L683.224,73.308 L683.224,85.772 L744.232,85.772 L744.232,117.26 L645.504,117.26 L645.504,2.46 L743.412,2.46 Z M543.168,2.46 L567.768,42.804 L592.368,2.46 L632.384,2.46 L632.384,117.26 L594.172,117.26 L594.172,60.352 L567.768,101.188 L567.112,101.188 L540.708,60.352 L540.708,117.26 L503.152,117.26 L503.152,2.46 L543.168,2.46 Z M287.492,33.948 C272.896,33.948 263.712,46.084 263.712,59.532 L263.712,59.532 L263.712,59.86 C263.712,73.472 273.06,85.772 287.82,85.772 C302.416,85.772 311.6,73.636 311.6,60.188 L311.6,60.188 L311.6,59.86 C311.6,46.248 302.252,33.948 287.492,33.948 Z M809.668,34.604 L792.94,34.604 L792.94,57.072 L809.504,57.072 C818.688,57.072 824.264,52.972 824.264,45.92 L824.264,45.92 L824.264,45.592 C824.264,38.212 818.524,34.604 809.668,34.604 L809.668,34.604 Z" id="Combined-Shape"></path>
            </g>
        </g>
    </g>
</svg>