<?xml version="1.0" encoding="UTF-8"?>
<svg width="61px" height="60px" viewBox="0 0 61 60" version="1.1" xmlns="http://www.w3.org/2000/svg" xmlns:xlink="http://www.w3.org/1999/xlink">
    <!-- Generator: Sketch 62 (91390) - https://sketch.com -->
    <title>google</title>
    <desc>Created with Sketch.</desc>
    <g id="FME-Version-1" stroke="none" stroke-width="1" fill="none" fill-rule="evenodd">
        <g id="FME-Home-Desktop" transform="translate(-552.000000, -5095.000000)" fill="#A3A3A3" fill-rule="nonzero">
            <g id="partners" transform="translate(0.000000, 5055.000000)">
                <g id="google" transform="translate(552.550000, 40.000000)">
                    <path d="M59.464611,24.01158 L30.633894,24.01158 C30.633894,27.0099 30.633894,33.00654 30.615516,36.00483 L47.322138,36.00483 C46.681932,39.00315 44.412108,43.20078 41.204952,45.31461 C41.201889,45.31161 41.198826,45.33258 41.1927,45.32958 C36.928743,48.14502 31.30167,48.78366 27.123483,47.94411 C20.57439,46.64286 15.391476,41.89353 13.287069,35.86092 C13.299321,35.85192 13.30851,35.76798 13.317699,35.76198 C12.000528,32.02008 12.000528,27.0099 13.317699,24.01158 L13.314636,24.01158 C15.011643,18.5007 20.350776,13.47252 26.909061,12.0963 C32.183868,10.97793 38.13564,12.18924 42.512934,16.28493 C43.09494,15.71526 50.569116,8.41737 51.129678,7.8237 C36.1752,-5.71968 12.230268,-0.95535 3.270447,16.53381 L3.267384,16.53381 C3.267384,16.53381 3.270447,16.53381 3.252069,16.56678 L3.252069,16.56678 C-1.180365,25.15695 -0.996573,35.27925 3.282699,43.45866 C3.270447,43.46763 3.261258,43.47363 3.252069,43.48263 C7.130061,51.0084 14.187645,56.78016 22.691052,58.9779 C31.724388,61.34658 43.220529,59.72748 50.921382,52.76241 C50.924445,52.76541 50.927508,52.76841 50.930571,52.77141 C57.45516,46.89471 61.516944,36.88335 59.464611,24.01158" id="google-[#178]"></path>
                </g>
            </g>
        </g>
    </g>
</svg>