<?xml version="1.0" encoding="UTF-8"?>
<svg width="54px" height="60px" viewBox="0 0 54 60" version="1.1" xmlns="http://www.w3.org/2000/svg" xmlns:xlink="http://www.w3.org/1999/xlink">
    <!-- Generator: Sketch 62 (91390) - https://sketch.com -->
    <title>shopify</title>
    <desc>Created with Sketch.</desc>
    <g id="FME-Version-1" stroke="none" stroke-width="1" fill="none" fill-rule="evenodd">
        <g id="FME-Home-Desktop" transform="translate(-983.000000, -5095.000000)" fill="#A3A3A3" fill-rule="nonzero">
            <g id="partners" transform="translate(0.000000, 5055.000000)">
                <g id="shopify" transform="translate(983.550000, 40.000000)">
                    <path d="M36.6088584,59.4437124 L38.5588752,8.743275 C39.5420712,9.7243875 40.6562955,10.835625 40.6562955,10.835625 C40.6562955,10.835625 45.2441451,11.176875 45.4605708,11.195625 C45.6788622,11.214375 45.941931,11.38125 45.9829773,11.683125 C46.0240236,11.985 52.5,55.989375 52.5,55.989375 L36.6088584,59.4437124 Z M34.0859169,59.992125 L34.0497174,60 L0,53.589375 C0,53.589375 4.36955826,19.6275 4.53560901,18.429375 C4.75390026,16.84875 4.806141,16.79625 6.47784213,16.269375 C6.74837412,16.183125 8.87344962,15.52125 11.8660934,14.589375 C13.0191194,9.675 16.6983546,0 24.3982551,0 C25.4038879,0 26.5681084,0.54375 27.5084402,1.7925 C27.6017271,1.786875 27.6968798,1.783125 27.7883009,1.783125 C31.0925229,1.783125 32.9713209,4.6125 34.0366572,7.69125 C35.1243825,7.35375 35.7811221,7.149375 35.8203027,7.138125 C35.8937721,7.11628749 35.9993802,7.09228749 36.1211328,7.0765125 L34.0859169,59.992125 Z M27.2565656,9.465 C27.2565656,7.156875 26.9468531,5.445 26.4748214,4.2525 C24.5960234,5.0625 22.448559,7.209375 21.3029959,11.653125 C23.3441131,11.0175 25.3796332,10.38375 27.2546999,9.800625 C27.2546999,9.691875 27.2565656,9.583125 27.2565656,9.465 Z M24.185561,2.075625 C18.6555137,2.075625 15.54906,9.373125 14.2411778,13.850625 C15.7169765,13.39125 17.3121824,12.894375 18.9447031,12.38625 C20.0622801,6.5175 22.7060308,3.5775 25.1744021,2.41125 C24.8534951,2.19 24.519528,2.075625 24.185561,2.075625 Z M25.5121006,28.24125 L27.7883009,21.440625 C27.7883009,21.440625 26.2490671,20.544375 23.1370162,20.544375 C15.058371,20.544375 11.056363,25.966875 11.056363,31.569375 C11.056363,38.2275 17.6666726,38.409375 17.6666726,42.46125 C17.6666726,43.44 16.9763495,44.780625 15.2841253,44.780625 C12.6907495,44.780625 9.61787913,42.129375 9.61787913,42.129375 L8.052525,47.325 C8.052525,47.325 11.0414371,50.98125 16.8867941,50.98125 C21.7582359,50.98125 25.3703045,47.295 25.3703045,41.5725 C25.3703045,34.2975 17.3140481,33.106875 17.3140481,30 C17.3140481,29.431875 17.4950248,27.1725 21.0772415,27.1725 C23.5194925,27.1725 25.5121006,28.24125 25.5121006,28.24125 Z M29.2734284,9.1725 C30.3275703,8.844375 31.2996198,8.5425 32.1541278,8.27625 C31.4246241,6.035625 30.2902554,4.0875 28.5868367,3.87375 C29.0103593,5.094375 29.2752941,6.635625 29.2752941,8.548125 C29.2752941,8.7675 29.2734284,8.968125 29.2734284,9.1725 Z" id="Shopify"></path>
                </g>
            </g>
        </g>
    </g>
</svg>