<?xml version="1.0" encoding="UTF-8"?>
<svg width="327px" height="149px" viewBox="0 0 327 149" version="1.1" xmlns="http://www.w3.org/2000/svg" xmlns:xlink="http://www.w3.org/1999/xlink">
    <!-- Generator: Sketch 60.1 (88133) - https://sketch.com -->
    <title>we_are_fme</title>
    <desc>Created with Sketch.</desc>
    <g id="FME-New-Site" stroke="none" stroke-width="1" fill="none" fill-rule="evenodd">
        <g id="FME-Home-Desktop" transform="translate(-159.000000, -223.000000)" fill-rule="nonzero">
            <g id="hero" transform="translate(40.000000, 0.000000)">
                <g id="we_are_fme" transform="translate(120.000000, 224.370000)">
                    <path d="M37.238,61.06 L47.816,31.132 L58.394,61.06 L75.938,61.06 L95.632,0.43 L74.906,0.43 L66.392,29.326 L56.674,0.258 L39.302,0.258 L29.584,29.326 L21.07,0.43 L-2.84217094e-14,0.43 L19.694,61.06 L37.238,61.06 Z M122.894,61.748 C133.042,61.748 139.664,57.534 144.308,51.514 L133.816,43.172 C130.72,46.354 127.796,47.988 124.27,47.988 C120.056,47.988 116.788,45.838 115.412,41.71 L145.598,41.71 C145.684,40.678 145.684,39.474 145.684,38.442 C145.684,24.166 137.944,12.556 121.26,12.556 C107.156,12.556 97.094,23.22 97.094,37.238 L97.094,37.41 C97.094,52.03 107.5,61.748 122.894,61.748 Z M127.882,33.11 L115.154,33.11 C115.756,28.81 118.078,26.058 121.346,26.058 C124.786,26.058 127.452,28.638 127.882,33.11 Z M189.458,60.63 L192.554,52.546 L213.624,52.546 L216.806,60.63 L238.65,60.63 L213.28,0 L193.328,0 L167.958,60.63 L189.458,60.63 Z M208.636,38.27 L197.628,38.27 L203.132,23.65 L208.636,38.27 Z M260.15,60.63 L260.15,48.676 C260.15,38.27 264.536,33.712 272.792,33.712 L274.856,33.712 L274.856,12.986 C267.116,12.642 262.816,16.77 260.15,23.134 L260.15,13.674 L240.628,13.674 L240.628,60.63 L260.15,60.63 Z M302.548,61.748 C312.696,61.748 319.318,57.534 323.962,51.514 L313.47,43.172 C310.374,46.354 307.45,47.988 303.924,47.988 C299.71,47.988 296.442,45.838 295.066,41.71 L325.252,41.71 C325.338,40.678 325.338,39.474 325.338,38.442 C325.338,24.166 317.598,12.556 300.914,12.556 C286.81,12.556 276.748,23.22 276.748,37.238 L276.748,37.41 C276.748,52.03 287.154,61.748 302.548,61.748 Z M307.536,33.11 L294.808,33.11 C295.41,28.81 297.732,26.058 301,26.058 C304.44,26.058 307.106,28.638 307.536,33.11 Z M23.564,146.63 L23.564,126.936 L51.686,126.936 L51.686,111.284 L23.564,111.284 L23.564,103.63 L53.836,103.63 L53.836,86.43 L3.44,86.43 L3.44,146.63 L23.564,146.63 Z M78.26,146.63 L78.26,116.788 L92.106,138.202 L92.45,138.202 L106.296,116.788 L106.296,146.63 L126.334,146.63 L126.334,86.43 L105.35,86.43 L92.45,107.586 L79.55,86.43 L58.566,86.43 L58.566,146.63 L78.26,146.63 Z M184.986,146.63 L184.986,130.118 L152.994,130.118 L152.994,123.582 L182.406,123.582 L182.406,109.048 L152.994,109.048 L152.994,102.942 L184.556,102.942 L184.556,86.43 L133.214,86.43 L133.214,146.63 L184.986,146.63 Z M209.066,146.63 L209.066,126.85 L189.114,126.85 L189.114,146.63 L209.066,146.63 Z" id="WeAreFME." stroke="#222222"></path>
                    <path d="M23.564,146.63 L23.564,126.936 L51.686,126.936 L51.686,111.284 L23.564,111.284 L23.564,103.63 L53.836,103.63 L53.836,86.43 L3.44,86.43 L3.44,146.63 L23.564,146.63 Z M78.26,146.63 L78.26,116.788 L92.106,138.202 L92.45,138.202 L106.296,116.788 L106.296,146.63 L126.334,146.63 L126.334,86.43 L105.35,86.43 L92.45,107.586 L79.55,86.43 L58.566,86.43 L58.566,146.63 L78.26,146.63 Z M184.986,146.63 L184.986,130.118 L152.994,130.118 L152.994,123.582 L182.406,123.582 L182.406,109.048 L152.994,109.048 L152.994,102.942 L184.556,102.942 L184.556,86.43 L133.214,86.43 L133.214,146.63 L184.986,146.63 Z M209.066,146.63 L209.066,126.85 L189.114,126.85 L189.114,146.63 L209.066,146.63 Z" id="WeAreFME." fill="#222222"></path>
                </g>
            </g>
        </g>
    </g>
</svg>