<?xml version="1.0" encoding="UTF-8"?>
<svg width="101px" height="60px" viewBox="0 0 101 60" version="1.1" xmlns="http://www.w3.org/2000/svg" xmlns:xlink="http://www.w3.org/1999/xlink">
    <!-- Generator: Sketch 62 (91390) - https://sketch.com -->
    <title>woocommerce</title>
    <desc>Created with Sketch.</desc>
    <g id="FME-Version-1" stroke="none" stroke-width="1" fill="none" fill-rule="evenodd">
        <g id="FME-Home-Desktop" transform="translate(-1196.000000, -5095.000000)" fill-rule="nonzero">
            <g id="partners" transform="translate(0.000000, 5055.000000)">
                <g id="woocommerce" transform="translate(1196.050000, 40.000000)">
                    <path d="M9.61712328,0 L91.3342893,0 C96.5057424,0 100.692157,4.18641435 100.692157,9.35786733 L100.692157,40.5507585 C100.692157,45.7222113 96.5057424,49.9086258 91.3342893,49.9086258 L62.029389,49.9086258 L66.0516303,59.7590124 L48.3619776,49.9086258 L9.65816658,49.9086258 C4.48671357,49.9086258 0.299705098,45.7222113 0.299705098,40.5507585 L0.299705098,9.35786733 C0.259255953,4.22745762 4.44567027,0 9.61712328,0 L9.61712328,0 Z" id="Path" fill="#A3A3A3"></path>
                    <path d="M6.01694094,8.52925236 C6.5882784,7.75386576 7.44528462,7.34576757 8.58795957,7.26414792 C10.6692604,7.10090868 11.8527452,8.0803443 12.1384139,10.202455 C13.4035183,18.7317073 14.7910522,25.9550455 16.2602057,31.8724692 L25.1975563,14.8547744 C26.0137527,13.3040013 27.0339982,12.4878049 28.2582928,12.4061852 C30.0539248,12.2837557 31.1557899,13.4264308 31.6046979,15.8342101 C32.6249436,21.2619162 33.9308577,25.8734258 35.4816309,29.7911685 C36.5426862,19.4254742 38.3383182,11.9572772 40.8685272,7.34576757 C41.4806745,6.20309262 42.3784905,5.63175513 43.5619752,5.55013548 C44.5006011,5.46851583 45.3576075,5.75418459 46.1329938,6.36633189 C46.9083804,6.97847922 47.3164785,7.75386576 47.3980983,8.69249166 C47.4389082,9.42706839 47.3164785,10.0392157 46.9899999,10.651363 C45.3984174,13.58967 44.0925027,18.5276582 43.0314474,25.383708 C42.011202,32.0357085 41.6439138,37.2185556 41.8887726,40.9322493 C41.9703921,41.952495 41.8071528,42.850311 41.399055,43.6256973 C40.9093368,44.5235133 40.1747601,45.0132315 39.2361342,45.094851 C38.1750789,45.1764705 37.0732137,44.6867529 36.0121584,43.5848874 C32.2168452,39.707955 29.1969186,33.9129603 26.9931883,26.1999043 C24.34055,31.4235612 22.3816787,35.3413041 21.1165743,37.9531326 C18.7087949,42.564642 16.6683039,44.9316117 14.9542915,45.0540411 C13.8524263,45.1356609 12.9138005,44.197035 12.0976041,42.2381634 C10.0163032,36.892077 7.77176319,26.5671928 5.3639838,11.2635103 C5.2007445,10.202455 5.44560345,9.26382909 6.01694094,8.52925236 Z M93.7172439,14.9363941 C92.2480902,12.3653754 90.0851697,10.8146023 87.1876725,10.202455 C86.4122859,10.0392157 85.6777095,9.95759604 84.9839424,9.95759604 C81.0661995,9.95759604 77.8830336,11.998087 75.3936345,16.079069 C73.2715239,19.5479037 72.2104686,23.3840268 72.2104686,27.5874382 C72.2104686,30.7297944 72.8634258,33.4232424 74.1693399,35.6677824 C75.6384936,38.2388013 77.8014141,39.7895745 80.6989113,40.4017215 C81.4742979,40.5649608 82.2088746,40.6465803 82.9026417,40.6465803 C86.8611942,40.6465803 90.0443601,38.6060895 92.492949,34.5251076 C94.6150599,31.0154631 95.6761152,27.17934 95.6761152,22.9759286 C95.7169251,19.7927626 95.023158,17.1401243 93.7172439,14.9363941 Z M88.5752067,26.2407142 C88.003869,28.9341623 86.9836236,30.9338436 85.4736603,32.2805676 C84.2901753,33.3416229 83.1883101,33.7905309 82.1680647,33.5864817 C81.1886289,33.3824328 80.3724324,32.5254264 79.7602854,30.9338436 C79.2705675,29.6687391 79.0257087,28.4036346 79.0257087,27.2201498 C79.0257087,26.1999044 79.1073282,25.1796589 79.3113774,24.241033 C79.6786659,22.5678304 80.3724324,20.9354376 81.4742979,19.3846644 C82.8210219,17.3849833 84.2493654,16.5687869 85.7185191,16.8544556 C86.6979549,17.0585047 87.5141514,17.9155109 88.1262984,19.5070939 C88.6160166,20.7721983 88.8608754,22.0373027 88.8608754,23.2207875 C88.8608754,24.2818428 88.7792556,25.3020883 88.5752067,26.2407142 Z M68.1702966,14.9363941 C66.7011432,12.3653754 64.4974128,10.8146023 61.6407255,10.202455 C60.8653389,10.0392157 60.1307619,9.95759604 59.4369954,9.95759604 C55.5192525,9.95759604 52.3360863,11.998087 49.8466875,16.079069 C47.7245769,19.5479037 46.6635216,23.3840268 46.6635216,27.5874382 C46.6635216,30.7297944 47.3164785,33.4232424 48.6223929,35.6677824 C50.0915463,38.2388013 52.2544668,39.7895745 55.151964,40.4017215 C55.9273506,40.5649608 56.6619276,40.6465803 57.3556941,40.6465803 C61.3142466,40.6465803 64.4974128,38.6060895 66.946002,34.5251076 C69.0681126,31.0154631 70.1291679,27.17934 70.1291679,22.9759286 C70.1291679,19.7927626 69.476211,17.1401243 68.1702966,14.9363941 Z M62.9874495,26.2407142 C62.4161121,28.9341623 61.3958667,30.9338436 59.8859031,32.2805676 C58.7024184,33.3416229 57.6005532,33.7905309 56.5803078,33.5864817 C55.6008723,33.3824328 54.7846758,32.5254264 54.1725282,30.9338436 C53.6828106,29.6687391 53.4379518,28.4036346 53.4379518,27.2201498 C53.4379518,26.1999044 53.5195713,25.1796589 53.7236205,24.241033 C54.0909087,22.5678304 54.7846758,20.9354376 55.8865407,19.3846644 C57.2332647,17.3849833 58.6616085,16.5687869 60.1307619,16.8544556 C61.1101977,17.0585047 61.9263942,17.9155109 62.5385415,19.5070939 C63.0282591,20.7721983 63.2731179,22.0373027 63.2731179,23.2207875 C63.3139278,24.2818428 63.1914984,25.3020883 62.9874495,26.2407142 L62.9874495,26.2407142 L62.9874495,26.2407142 Z" id="Shape" fill="#FFFFFF"></path>
                </g>
            </g>
        </g>
    </g>
</svg>